<?xml version="1.0" standalone="no"?>
  <!DOCTYPE svg PUBLIC "-//W3C//DTD SVG 1.1//EN" "http://www.w3.org/Graphics/SVG/1.1/DTD/svg11.dtd" >
  <svg>
  <metadata>
  Created by font-carrier
  </metadata>
  <defs>
  <font id="MonumentExtended-Regular" horiz-adv-x="2372" vert-adv-y="2372" >
    <font-face
      
      font-family="Monument Extended"
      
      font-weight="400"
      
      font-stretch="normal"
      
      units-per-em="1000"
      
      ascent="900"
      
      descent="-300"
      
    />
      <missing-glyph />

      

      
      <glyph glyph-name="uni41" unicode="&#x41;" d="M800 0L999 0L637 700L394 700L33 0L231 0L306 149L725 149ZM373 283L516 567L658 283Z"  horiz-adv-x="1032" vert-adv-y="1000"  />

      
      <glyph glyph-name="unic1" unicode="&#xc1;" d="M710 980L321 900L321 782L710 862ZM800 0L999 0L637 700L394 700L33 0L231 0L306 149L725 149ZM373 283L516 567L658 283Z"  horiz-adv-x="1032" vert-adv-y="1000"  />

      
      <glyph glyph-name="uni0102" unicode="&#x0102;" d="M516 767C640 767 743 807 743 981L634 981C634 900 590 870 516 870C442 870 397 900 397 981L289 981C289 807 392 767 516 767ZM800 0L999 0L637 700L394 700L33 0L231 0L306 149L725 149ZM373 283L516 567L658 283Z"  horiz-adv-x="1032" vert-adv-y="1000"  />

      
      <glyph glyph-name="unic2" unicode="&#xc2;" d="M723 782L723 900L516 980L309 900L309 782L516 862ZM800 0L999 0L637 700L394 700L33 0L231 0L306 149L725 149ZM373 283L516 567L658 283Z"  horiz-adv-x="1032" vert-adv-y="1000"  />

      
      <glyph glyph-name="unic4" unicode="&#xc4;" d="M475 944L298 944L298 798L475 798ZM735 944L558 944L558 798L735 798ZM800 0L999 0L637 700L394 700L33 0L231 0L306 149L725 149ZM373 283L516 567L658 283Z"  horiz-adv-x="1032" vert-adv-y="1000"  />

      
      <glyph glyph-name="unic0" unicode="&#xc0;" d="M710 900L321 980L321 862L710 782ZM800 0L999 0L637 700L394 700L33 0L231 0L306 149L725 149ZM373 283L516 567L658 283Z"  horiz-adv-x="1032" vert-adv-y="1000"  />

      
      <glyph glyph-name="uni0100" unicode="&#x0100;" d="M750 910L281 910L281 792L750 792ZM800 0L999 0L637 700L394 700L33 0L231 0L306 149L725 149ZM373 283L516 567L658 283Z"  horiz-adv-x="1032" vert-adv-y="1000"  />

      
      <glyph glyph-name="uni0104" unicode="&#x0104;" d="M881-63C881-37 907-17 928 0L999 0L637 700L394 700L33 0L231 0L306 149L725 149L800 0L833 0C782-33 753-66 753-113C753-211 854-230 1041-230L1041-113C958-113 881-113 881-63ZM373 283L516 567L658 283Z"  horiz-adv-x="1032" vert-adv-y="1000"  />

      
      <glyph glyph-name="unic5" unicode="&#xc5;" d="M516 771C672 771 726 820 726 903C726 986 672 1035 516 1035C359 1035 306 986 306 903C306 820 359 771 516 771ZM516 956C581 956 617 943 617 903C617 863 581 850 516 850C451 850 414 863 414 903C414 943 451 956 516 956ZM800 0L999 0L637 700L394 700L33 0L231 0L306 149L725 149ZM373 283L516 567L658 283Z"  horiz-adv-x="1032" vert-adv-y="1000"  />

      
      <glyph glyph-name="unic3" unicode="&#xc3;" d="M427 870C507 870 534 771 649 771C761 771 806 870 806 981L660 981C660 924 647 892 604 892C524 892 497 991 383 991C270 991 226 892 226 781L372 781C372 838 385 870 427 870ZM800 0L999 0L637 700L394 700L33 0L231 0L306 149L725 149ZM373 283L516 567L658 283Z"  horiz-adv-x="1032" vert-adv-y="1000"  />

      
      <glyph glyph-name="unic6" unicode="&#xc6;" d="M1370 557L1370 700L374 700L33 0L234 0L305 148L630 148L630 0L1370 0L1370 143L810 143L810 285L1370 285L1370 415L810 415L810 557ZM630 561L630 283L370 283L503 561Z"  horiz-adv-x="1403" vert-adv-y="1000"  />

      
      <glyph glyph-name="uni42" unicode="&#x42;" d="M812 380C847 419 867 467 867 516C867 619 818 700 659 700L43 700L43 0L683 0C842 0 911 86 911 204C911 285 872 343 812 380ZM223 570L594 570C643 570 687 570 687 498C687 425 643 425 595 425L594 425L223 425ZM639 139L223 139L223 287L639 287C687 287 731 287 731 213C731 139 687 139 639 139Z"  horiz-adv-x="944" vert-adv-y="1000"  />

      
      <glyph glyph-name="uni43" unicode="&#x43;" d="M33 351C33 118 165-10 473-10C752-10 892 97 910 300L727 300C710 186 622 141 473 141C291 141 213 207 213 351C213 494 290 559 473 559C623 559 710 515 727 402L910 402C892 604 752 710 473 710C165 710 33 583 33 351Z"  horiz-adv-x="943" vert-adv-y="1000"  />

      
      <glyph glyph-name="uni0106" unicode="&#x0106;" d="M277 900L277 782L666 862L666 980ZM33 351C33 118 165-10 473-10C752-10 892 97 910 300L727 300C710 186 622 141 473 141C291 141 213 207 213 351C213 494 290 559 473 559C623 559 710 515 727 402L910 402C892 604 752 710 473 710C165 710 33 583 33 351Z"  horiz-adv-x="943" vert-adv-y="1000"  />

      
      <glyph glyph-name="uni010C" unicode="&#x010C;" d="M679 864L679 982L472 902L265 982L265 864L472 784ZM473 141C291 141 213 207 213 351C213 494 290 559 473 559C623 559 710 515 727 402L910 402C892 604 752 710 473 710C165 710 33 583 33 351C33 118 165-10 473-10C752-10 892 97 910 300L727 300C710 186 622 141 473 141Z"  horiz-adv-x="943" vert-adv-y="1000"  />

      
      <glyph glyph-name="unic7" unicode="&#xc7;" d="M473 141C291 141 213 207 213 351C213 494 290 559 473 559C623 559 710 515 727 402L910 402C892 604 752 710 473 710C165 710 33 583 33 351C33 134 148 8 413-8L402-35L461-93C539-75 565-83 565-107C565-145 509-164 378-145L378-230C532-249 694-230 694-116C694-19 577-28 517-47L529-8C771 5 893 111 910 300L727 300C710 186 622 141 473 141Z"  horiz-adv-x="943" vert-adv-y="1000"  />

      
      <glyph glyph-name="uni010A" unicode="&#x010A;" d="M375 944L375 798L569 798L569 944ZM33 351C33 118 165-10 473-10C752-10 892 97 910 300L727 300C710 186 622 141 473 141C291 141 213 207 213 351C213 494 290 559 473 559C623 559 710 515 727 402L910 402C892 604 752 710 473 710C165 710 33 583 33 351Z"  horiz-adv-x="943" vert-adv-y="1000"  />

      
      <glyph glyph-name="uni44" unicode="&#x44;" d="M551 700L43 700L43 0L551 0C732 0 891 112 891 350C891 588 732 700 551 700ZM483 151L223 151L223 549L483 549C619 549 711 520 711 350C711 180 619 151 483 151Z"  horiz-adv-x="924" vert-adv-y="1000"  />

      
      <glyph glyph-name="unid0" unicode="&#xd0;" d="M624 700L116 700L116 409L43 409L43 291L116 291L116 0L624 0C805 0 964 112 964 350C964 588 805 700 624 700ZM556 151L296 151L296 291L523 291L523 409L296 409L296 549L556 549C692 549 784 520 784 350C784 180 692 151 556 151Z"  horiz-adv-x="1001" vert-adv-y="1000"  />

      
      <glyph glyph-name="uni010E" unicode="&#x010E;" d="M604 864L604 982L397 902L190 982L190 864L397 784ZM551 700L43 700L43 0L551 0C732 0 891 112 891 350C891 588 732 700 551 700ZM483 151L223 151L223 549L483 549C619 549 711 520 711 350C711 180 619 151 483 151Z"  horiz-adv-x="924" vert-adv-y="1000"  />

      
      <glyph glyph-name="uni0110" unicode="&#x0110;" d="M624 700L116 700L116 409L43 409L43 291L116 291L116 0L624 0C805 0 964 112 964 350C964 588 805 700 624 700ZM556 151L296 151L296 291L523 291L523 409L296 409L296 549L556 549C692 549 784 520 784 350C784 180 692 151 556 151Z"  horiz-adv-x="1001" vert-adv-y="1000"  />

      
      <glyph glyph-name="uni45" unicode="&#x45;" d="M783 557L783 700L43 700L43 0L783 0L783 143L223 143L223 285L783 285L783 415L223 415L223 557Z"  horiz-adv-x="816" vert-adv-y="1000"  />

      
      <glyph glyph-name="unic9" unicode="&#xc9;" d="M607 980L218 900L218 782L607 862ZM783 557L783 700L43 700L43 0L783 0L783 143L223 143L223 285L783 285L783 415L223 415L223 557Z"  horiz-adv-x="816" vert-adv-y="1000"  />

      
      <glyph glyph-name="uni011A" unicode="&#x011A;" d="M620 864L620 982L413 902L206 982L206 864L413 784ZM783 557L783 700L43 700L43 0L783 0L783 143L223 143L223 285L783 285L783 415L223 415L223 557Z"  horiz-adv-x="816" vert-adv-y="1000"  />

      
      <glyph glyph-name="unica" unicode="&#xca;" d="M620 782L620 900L413 980L206 900L206 782L413 862ZM783 557L783 700L43 700L43 0L783 0L783 143L223 143L223 285L783 285L783 415L223 415L223 557Z"  horiz-adv-x="816" vert-adv-y="1000"  />

      
      <glyph glyph-name="unicb" unicode="&#xcb;" d="M372 944L195 944L195 798L372 798ZM632 944L455 944L455 798L632 798ZM783 557L783 700L43 700L43 0L783 0L783 143L223 143L223 285L783 285L783 415L223 415L223 557Z"  horiz-adv-x="816" vert-adv-y="1000"  />

      
      <glyph glyph-name="uni0116" unicode="&#x0116;" d="M510 944L316 944L316 798L510 798ZM783 557L783 700L43 700L43 0L783 0L783 143L223 143L223 285L783 285L783 415L223 415L223 557Z"  horiz-adv-x="816" vert-adv-y="1000"  />

      
      <glyph glyph-name="unic8" unicode="&#xc8;" d="M607 900L218 980L218 862L607 782ZM783 557L783 700L43 700L43 0L783 0L783 143L223 143L223 285L783 285L783 415L223 415L223 557Z"  horiz-adv-x="816" vert-adv-y="1000"  />

      
      <glyph glyph-name="uni0112" unicode="&#x0112;" d="M647 910L178 910L178 792L647 792ZM783 557L783 700L43 700L43 0L783 0L783 143L223 143L223 285L783 285L783 415L223 415L223 557Z"  horiz-adv-x="816" vert-adv-y="1000"  />

      
      <glyph glyph-name="uni0118" unicode="&#x0118;" d="M646-63C646-37 672-17 693 0L783 0L783 143L223 143L223 285L783 285L783 415L223 415L223 557L783 557L783 700L43 700L43 0L598 0C547-33 518-66 518-113C518-211 619-230 806-230L806-113C723-113 646-113 646-63Z"  horiz-adv-x="816" vert-adv-y="1000"  />

      
      <glyph glyph-name="uni46" unicode="&#x46;" d="M783 549L783 700L43 700L43 0L223 0L223 219L723 219L723 371L223 371L223 549Z"  horiz-adv-x="816" vert-adv-y="1000"  />

      
      <glyph glyph-name="uni47" unicode="&#x47;" d="M466 258L727 258C723 205 653 129 479 129C246 129 213 261 213 346C213 430 245 559 479 559C669 559 717 480 727 427L910 427C899 601 759 710 479 710C191 710 33 582 33 350C33 118 191-10 449-10C598-10 703 38 769 110L777 0L910 0L910 375L466 375Z"  horiz-adv-x="943" vert-adv-y="1000"  />

      
      <glyph glyph-name="uni011E" unicode="&#x011E;" d="M472 767C596 767 699 807 699 981L590 981C590 900 546 870 472 870C398 870 353 900 353 981L245 981C245 807 348 767 472 767ZM466 258L727 258C723 205 653 129 479 129C246 129 213 261 213 346C213 430 245 559 479 559C669 559 717 480 727 427L910 427C899 601 759 710 479 710C191 710 33 582 33 350C33 118 191-10 449-10C598-10 703 38 769 110L777 0L910 0L910 375L466 375Z"  horiz-adv-x="943" vert-adv-y="1000"  />

      
      <glyph glyph-name="uni0122" unicode="&#x0122;" d="M466 258L727 258C723 205 653 129 479 129C246 129 213 261 213 346C213 430 245 559 479 559C669 559 717 480 727 427L910 427C899 601 759 710 479 710C191 710 33 582 33 350C33 118 191-10 449-10C598-10 703 38 769 110L777 0L910 0L910 375L466 375ZM395-225L451-225L395-335L469-335L549-225L549-117L395-117Z"  horiz-adv-x="943" vert-adv-y="1000"  />

      
      <glyph glyph-name="uni0120" unicode="&#x0120;" d="M569 944L375 944L375 798L569 798ZM466 258L727 258C723 205 653 129 479 129C246 129 213 261 213 346C213 430 245 559 479 559C669 559 717 480 727 427L910 427C899 601 759 710 479 710C191 710 33 582 33 350C33 118 191-10 449-10C598-10 703 38 769 110L777 0L910 0L910 375L466 375Z"  horiz-adv-x="943" vert-adv-y="1000"  />

      
      <glyph glyph-name="uni48" unicode="&#x48;" d="M793 700L793 426L223 426L223 700L43 700L43 0L223 0L223 274L793 274L793 0L973 0L973 700Z"  horiz-adv-x="1016" vert-adv-y="1000"  />

      
      <glyph glyph-name="uni0126" unicode="&#x0126;" d="M1008 629L973 629L973 700L793 700L793 629L223 629L223 700L43 700L43 629L8 629L8 511L43 511L43 0L223 0L223 274L793 274L793 0L973 0L973 511L1008 511ZM793 426L223 426L223 511L793 511Z"  horiz-adv-x="1016" vert-adv-y="1000"  />

      
      <glyph glyph-name="uni49" unicode="&#x49;" d="M223 700L43 700L43 0L223 0Z"  horiz-adv-x="266" vert-adv-y="1000"  />

      
      <glyph glyph-name="unicd" unicode="&#xcd;" d="M-62 900L-62 782L327 862L327 980ZM223 700L43 700L43 0L223 0Z"  horiz-adv-x="266" vert-adv-y="1000"  />

      
      <glyph glyph-name="unice" unicode="&#xce;" d="M133 980L-74 900L-74 782L133 862L340 782L340 900ZM43 0L223 0L223 700L43 700Z"  horiz-adv-x="266" vert-adv-y="1000"  />

      
      <glyph glyph-name="unicf" unicode="&#xcf;" d="M-85 944L-85 798L92 798L92 944ZM175 944L175 798L352 798L352 944ZM223 700L43 700L43 0L223 0Z"  horiz-adv-x="266" vert-adv-y="1000"  />

      
      <glyph glyph-name="uni0130" unicode="&#x0130;" d="M36 944L36 798L230 798L230 944ZM223 700L43 700L43 0L223 0Z"  horiz-adv-x="266" vert-adv-y="1000"  />

      
      <glyph glyph-name="unicc" unicode="&#xcc;" d="M327 900L-62 980L-62 862L327 782ZM223 700L43 700L43 0L223 0Z"  horiz-adv-x="266" vert-adv-y="1000"  />

      
      <glyph glyph-name="uni012A" unicode="&#x012A;" d="M-102 910L-102 792L367 792L367 910ZM223 700L43 700L43 0L223 0Z"  horiz-adv-x="266" vert-adv-y="1000"  />

      
      <glyph glyph-name="uni012E" unicode="&#x012E;" d="M155-63C155-37 181-17 202 0L223 0L223 700L43 700L43 0L107 0C56-33 27-66 27-113C27-211 128-230 315-230L315-113C232-113 155-113 155-63Z"  horiz-adv-x="266" vert-adv-y="1000"  />

      
      <glyph glyph-name="uni4a" unicode="&#x4a;" d="M883 700L371 700L371 549L703 549L703 351C703 254 676 141 463 141C250 141 223 253 223 351L43 351C43 107 175-10 463-10C750-10 883 108 883 351Z"  horiz-adv-x="926" vert-adv-y="1000"  />

      
      <glyph glyph-name="uni4b" unicode="&#x4b;" d="M995 700L722 700L223 337L223 700L43 700L43 0L223 0L223 134L438 291L746 0L995 0L571 389Z"  horiz-adv-x="1028" vert-adv-y="1000"  />

      
      <glyph glyph-name="uni0136" unicode="&#x0136;" d="M995 700L722 700L223 337L223 700L43 700L43 0L223 0L223 134L438 291L746 0L995 0L571 389ZM442-225L498-225L442-335L516-335L596-225L596-117L442-117Z"  horiz-adv-x="1028" vert-adv-y="1000"  />

      
      <glyph glyph-name="uni4c" unicode="&#x4c;" d="M223 151L223 700L43 700L43 0L763 0L763 151Z"  horiz-adv-x="796" vert-adv-y="1000"  />

      
      <glyph glyph-name="uni0139" unicode="&#x0139;" d="M432 980L43 900L43 782L432 862ZM223 151L223 700L43 700L43 0L763 0L763 151Z"  horiz-adv-x="796" vert-adv-y="1000"  />

      
      <glyph glyph-name="uni013D" unicode="&#x013D;" d="M445 864L445 982L238 902L31 982L31 864L238 784ZM223 151L223 700L43 700L43 0L763 0L763 151Z"  horiz-adv-x="796" vert-adv-y="1000"  />

      
      <glyph glyph-name="uni013B" unicode="&#x013B;" d="M223 151L223 700L43 700L43 0L763 0L763 151ZM326-225L382-225L326-335L400-335L480-225L480-117L326-117Z"  horiz-adv-x="796" vert-adv-y="1000"  />

      
      <glyph glyph-name="uni0141" unicode="&#x0141;" d="M306 151L306 324L565 431L565 577L306 470L306 700L126 700L126 396L43 362L43 216L126 250L126 0L846 0L846 151Z"  horiz-adv-x="889" vert-adv-y="1000"  />

      
      <glyph glyph-name="uni4d" unicode="&#x4d;" d="M1115 700L872 700L579 206L286 700L43 700L43 0L223 0L223 480L514 0L644 0L935 480L935 0L1115 0Z"  horiz-adv-x="1158" vert-adv-y="1000"  />

      
      <glyph glyph-name="uni4e" unicode="&#x4e;" d="M765 700L765 174L287 700L43 700L43 0L223 0L223 525L700 0L945 0L945 700Z"  horiz-adv-x="988" vert-adv-y="1000"  />

      
      <glyph glyph-name="uni0143" unicode="&#x0143;" d="M688 980L299 900L299 782L688 862ZM765 700L765 174L287 700L43 700L43 0L223 0L223 525L700 0L945 0L945 700Z"  horiz-adv-x="988" vert-adv-y="1000"  />

      
      <glyph glyph-name="uni0147" unicode="&#x0147;" d="M701 864L701 982L494 902L287 982L287 864L494 784ZM765 700L765 174L287 700L43 700L43 0L223 0L223 525L700 0L945 0L945 700Z"  horiz-adv-x="988" vert-adv-y="1000"  />

      
      <glyph glyph-name="uni0145" unicode="&#x0145;" d="M765 700L765 174L287 700L43 700L43 0L223 0L223 525L700 0L945 0L945 700ZM417-225L473-225L417-335L491-335L571-225L571-117L417-117Z"  horiz-adv-x="988" vert-adv-y="1000"  />

      
      <glyph glyph-name="uni014A" unicode="&#x014A;" d="M765 700L765 174L287 700L43 700L43 0L223 0L223 525L700 0L765 0C765-80 743-127 637-127C569-127 539-121 490-111L490-249C547-263 608-270 667-270C863-270 945-173 945 0L945 700Z"  horiz-adv-x="988" vert-adv-y="1000"  />

      
      <glyph glyph-name="unid1" unicode="&#xd1;" d="M405 870C485 870 512 771 627 771C739 771 784 870 784 981L638 981C638 924 625 892 582 892C502 892 475 991 361 991C248 991 204 892 204 781L350 781C350 838 363 870 405 870ZM765 700L765 174L287 700L43 700L43 0L223 0L223 525L700 0L945 0L945 700Z"  horiz-adv-x="988" vert-adv-y="1000"  />

      
      <glyph glyph-name="uni4f" unicode="&#x4f;" d="M473-10C780-10 913 119 913 351C913 582 780 710 473 710C165 710 33 583 33 351C33 118 165-10 473-10ZM473 141C286 141 213 207 213 351C213 494 285 559 473 559C661 559 733 493 733 351C733 208 660 141 473 141Z"  horiz-adv-x="946" vert-adv-y="1000"  />

      
      <glyph glyph-name="unid3" unicode="&#xd3;" d="M278 900L278 782L667 862L667 980ZM473-10C780-10 913 119 913 351C913 582 780 710 473 710C165 710 33 583 33 351C33 118 165-10 473-10ZM473 141C286 141 213 207 213 351C213 494 285 559 473 559C661 559 733 493 733 351C733 208 660 141 473 141Z"  horiz-adv-x="946" vert-adv-y="1000"  />

      
      <glyph glyph-name="unid4" unicode="&#xd4;" d="M680 782L680 900L473 980L266 900L266 782L473 862ZM473 710C165 710 33 583 33 351C33 118 165-10 473-10C780-10 913 119 913 351C913 582 780 710 473 710ZM473 141C286 141 213 207 213 351C213 494 285 559 473 559C661 559 733 493 733 351C733 208 660 141 473 141Z"  horiz-adv-x="946" vert-adv-y="1000"  />

      
      <glyph glyph-name="unid6" unicode="&#xd6;" d="M255 944L255 798L432 798L432 944ZM515 944L515 798L692 798L692 944ZM473-10C780-10 913 119 913 351C913 582 780 710 473 710C165 710 33 583 33 351C33 118 165-10 473-10ZM473 141C286 141 213 207 213 351C213 494 285 559 473 559C661 559 733 493 733 351C733 208 660 141 473 141Z"  horiz-adv-x="946" vert-adv-y="1000"  />

      
      <glyph glyph-name="unid2" unicode="&#xd2;" d="M667 900L278 980L278 862L667 782ZM473-10C780-10 913 119 913 351C913 582 780 710 473 710C165 710 33 583 33 351C33 118 165-10 473-10ZM473 141C286 141 213 207 213 351C213 494 285 559 473 559C661 559 733 493 733 351C733 208 660 141 473 141Z"  horiz-adv-x="946" vert-adv-y="1000"  />

      
      <glyph glyph-name="uni0150" unicode="&#x0150;" d="M236 912L236 790L443 870L443 992ZM503 912L503 790L710 870L710 992ZM473-10C780-10 913 119 913 351C913 582 780 710 473 710C165 710 33 583 33 351C33 118 165-10 473-10ZM473 141C286 141 213 207 213 351C213 494 285 559 473 559C661 559 733 493 733 351C733 208 660 141 473 141Z"  horiz-adv-x="946" vert-adv-y="1000"  />

      
      <glyph glyph-name="uni014C" unicode="&#x014C;" d="M238 910L238 792L707 792L707 910ZM473-10C780-10 913 119 913 351C913 582 780 710 473 710C165 710 33 583 33 351C33 118 165-10 473-10ZM473 141C286 141 213 207 213 351C213 494 285 559 473 559C661 559 733 493 733 351C733 208 660 141 473 141Z"  horiz-adv-x="946" vert-adv-y="1000"  />

      
      <glyph glyph-name="unid8" unicode="&#xd8;" d="M649 692L677 785L529 785L506 709C496 710 484 710 473 710C165 710 33 583 33 351C33 169 114 51 297 8L269-85L417-85L440-9C450-10 462-10 473-10C780-10 913 119 913 351C913 532 832 649 649 692ZM213 351C213 491 282 556 461 559L341 157C251 184 213 248 213 351ZM485 141L605 543C696 516 733 453 733 351C733 211 663 144 485 141Z"  horiz-adv-x="946" vert-adv-y="1000"  />

      
      <glyph glyph-name="unid5" unicode="&#xd5;" d="M183 781L329 781C329 838 342 870 384 870C464 870 491 771 606 771C718 771 763 870 763 981L617 981C617 924 604 892 561 892C481 892 454 991 340 991C227 991 183 892 183 781ZM473-10C780-10 913 119 913 351C913 582 780 710 473 710C165 710 33 583 33 351C33 118 165-10 473-10ZM473 141C286 141 213 207 213 351C213 494 285 559 473 559C661 559 733 493 733 351C733 208 660 141 473 141Z"  horiz-adv-x="946" vert-adv-y="1000"  />

      
      <glyph glyph-name="uni0152" unicode="&#x0152;" d="M1522 557L1522 700L782 700L782 637C711 685 609 710 473 710C165 710 33 583 33 351C33 118 165-10 473-10C609-10 711 15 782 64L782 0L1522 0L1522 143L962 143L962 285L1522 285L1522 415L962 415L962 557ZM473 141C286 141 213 207 213 351C213 494 285 559 473 559C661 559 733 493 733 351C733 208 660 141 473 141Z"  horiz-adv-x="1555" vert-adv-y="1000"  />

      
      <glyph glyph-name="uni50" unicode="&#x50;" d="M593 700L43 700L43 0L223 0L223 187L593 187C752 187 861 287 861 443C861 599 752 700 593 700ZM543 338L223 338L223 549L543 549C597 549 681 549 681 443C681 338 597 338 543 338Z"  horiz-adv-x="894" vert-adv-y="1000"  />

      
      <glyph glyph-name="unide" unicode="&#xde;" d="M593 608L223 608L223 700L43 700L43 0L223 0L223 95L593 95C752 95 861 195 861 351C861 507 752 608 593 608ZM543 246L223 246L223 456L543 456C597 456 681 456 681 351C681 246 597 246 543 246Z"  horiz-adv-x="894" vert-adv-y="1000"  />

      
      <glyph glyph-name="uni51" unicode="&#x51;" d="M973 38L863 148C897 203 913 271 913 351C913 582 780 710 473 710C165 710 33 583 33 351C33 118 165-10 473-10C576-10 659 4 725 32L846-89ZM213 351C213 494 285 559 473 559C661 559 733 493 733 351C733 208 660 141 473 141C286 141 213 207 213 351Z"  horiz-adv-x="1016" vert-adv-y="1000"  />

      
      <glyph glyph-name="uni52" unicode="&#x52;" d="M861 443C861 599 752 700 593 700L43 700L43 0L223 0L223 187L513 187L626 0L838 0L709 208C803 245 861 329 861 443ZM223 549L543 549C597 549 681 549 681 443C681 338 597 338 543 338L223 338Z"  horiz-adv-x="894" vert-adv-y="1000"  />

      
      <glyph glyph-name="uni0154" unicode="&#x0154;" d="M623 980L234 900L234 782L623 862ZM861 443C861 599 752 700 593 700L43 700L43 0L223 0L223 187L513 187L626 0L838 0L709 208C803 245 861 329 861 443ZM223 549L543 549C597 549 681 549 681 443C681 338 597 338 543 338L223 338Z"  horiz-adv-x="894" vert-adv-y="1000"  />

      
      <glyph glyph-name="uni0158" unicode="&#x0158;" d="M636 864L636 982L429 902L222 982L222 864L429 784ZM861 443C861 599 752 700 593 700L43 700L43 0L223 0L223 187L513 187L626 0L838 0L709 208C803 245 861 329 861 443ZM223 549L543 549C597 549 681 549 681 443C681 338 597 338 543 338L223 338Z"  horiz-adv-x="894" vert-adv-y="1000"  />

      
      <glyph glyph-name="uni0156" unicode="&#x0156;" d="M861 443C861 599 752 700 593 700L43 700L43 0L223 0L223 187L513 187L626 0L838 0L709 208C803 245 861 329 861 443ZM223 549L543 549C597 549 681 549 681 443C681 338 597 338 543 338L223 338ZM352-225L408-225L352-335L426-335L506-225L506-117L352-117Z"  horiz-adv-x="894" vert-adv-y="1000"  />

      
      <glyph glyph-name="uni53" unicode="&#x53;" d="M33 241C33 39 204-10 491-10C750-10 927 28 927 215C927 392 756 407 480 422C276 434 234 444 234 498C234 550 276 567 453 567C640 567 717 548 717 471L897 471C897 644 737 710 473 710C211 710 54 661 54 507C54 350 175 302 480 288C707 277 747 267 747 209C747 154 690 133 501 133C273 133 213 167 213 241Z"  horiz-adv-x="960" vert-adv-y="1000"  />

      
      <glyph glyph-name="uni015A" unicode="&#x015A;" d="M285 900L285 782L674 862L674 980ZM33 241C33 39 204-10 491-10C750-10 927 28 927 215C927 392 756 407 480 422C276 434 234 444 234 498C234 550 276 567 453 567C640 567 717 548 717 471L897 471C897 644 737 710 473 710C211 710 54 661 54 507C54 350 175 302 480 288C707 277 747 267 747 209C747 154 690 133 501 133C273 133 213 167 213 241Z"  horiz-adv-x="960" vert-adv-y="1000"  />

      
      <glyph glyph-name="uni0160" unicode="&#x0160;" d="M687 864L687 982L480 902L273 982L273 864L480 784ZM480 422C276 434 234 444 234 498C234 550 276 567 453 567C640 567 717 548 717 471L897 471C897 644 737 710 473 710C211 710 54 661 54 507C54 350 175 302 480 288C707 277 747 267 747 209C747 154 690 133 501 133C273 133 213 167 213 241L33 241C33 39 204-10 491-10C750-10 927 28 927 215C927 392 756 407 480 422Z"  horiz-adv-x="960" vert-adv-y="1000"  />

      
      <glyph glyph-name="uni015E" unicode="&#x015E;" d="M927 215C927 392 756 407 480 422C276 434 234 444 234 498C234 550 276 567 453 567C640 567 717 548 717 471L897 471C897 644 737 710 473 710C211 710 54 661 54 507C54 350 175 302 480 288C707 277 747 267 747 209C747 154 690 133 501 133C273 133 213 167 213 241L33 241C33 56 176-1 420-9L410-35L469-93C547-75 573-83 573-107C573-145 517-164 386-145L386-230C540-249 702-230 702-116C702-19 585-28 525-47L537-10C771-5 927 39 927 215Z"  horiz-adv-x="960" vert-adv-y="1000"  />

      
      <glyph glyph-name="uni0218" unicode="&#x0218;" d="M33 241C33 39 204-10 491-10C750-10 927 28 927 215C927 392 756 407 480 422C276 434 234 444 234 498C234 550 276 567 453 567C640 567 717 548 717 471L897 471C897 644 737 710 473 710C211 710 54 661 54 507C54 350 175 302 480 288C707 277 747 267 747 209C747 154 690 133 501 133C273 133 213 167 213 241ZM403-117L403-225L459-225L403-335L477-335L557-225L557-117Z"  horiz-adv-x="960" vert-adv-y="1000"  />

      
      <glyph glyph-name="uni54" unicode="&#x54;" d="M893 700L33 700L33 549L373 549L373 0L553 0L553 549L893 549Z"  horiz-adv-x="926" vert-adv-y="1000"  />

      
      <glyph glyph-name="uni0166" unicode="&#x0166;" d="M893 549L893 700L33 700L33 549L373 549L373 349L214 349L214 231L373 231L373 0L553 0L553 231L694 231L694 349L553 349L553 549Z"  horiz-adv-x="926" vert-adv-y="1000"  />

      
      <glyph glyph-name="uni0164" unicode="&#x0164;" d="M670 864L670 982L463 902L256 982L256 864L463 784ZM893 700L33 700L33 549L373 549L373 0L553 0L553 549L893 549Z"  horiz-adv-x="926" vert-adv-y="1000"  />

      
      <glyph glyph-name="uni0162" unicode="&#x0162;" d="M553 0L553 549L893 549L893 700L33 700L33 549L373 549L373 0L407 0L393-35L452-93C530-75 556-83 556-107C556-145 500-164 369-145L369-230C523-249 685-230 685-116C685-19 568-28 508-47L523 0Z"  horiz-adv-x="926" vert-adv-y="1000"  />

      
      <glyph glyph-name="uni021A" unicode="&#x021A;" d="M893 700L33 700L33 549L373 549L373 0L553 0L553 549L893 549ZM386-225L442-225L386-335L460-335L540-225L540-117L386-117Z"  horiz-adv-x="926" vert-adv-y="1000"  />

      
      <glyph glyph-name="uni55" unicode="&#x55;" d="M923 351L923 700L743 700L743 351C743 254 716 141 483 141C250 141 223 253 223 351L223 700L43 700L43 351C43 107 175-10 483-10C790-10 923 108 923 351Z"  horiz-adv-x="966" vert-adv-y="1000"  />

      
      <glyph glyph-name="unida" unicode="&#xda;" d="M288 900L288 782L677 862L677 980ZM923 351L923 700L743 700L743 351C743 254 716 141 483 141C250 141 223 253 223 351L223 700L43 700L43 351C43 107 175-10 483-10C790-10 923 108 923 351Z"  horiz-adv-x="966" vert-adv-y="1000"  />

      
      <glyph glyph-name="unidb" unicode="&#xdb;" d="M690 782L690 900L483 980L276 900L276 782L483 862ZM743 700L743 351C743 254 716 141 483 141C250 141 223 253 223 351L223 700L43 700L43 351C43 107 175-10 483-10C790-10 923 108 923 351L923 700Z"  horiz-adv-x="966" vert-adv-y="1000"  />

      
      <glyph glyph-name="unidc" unicode="&#xdc;" d="M265 944L265 798L442 798L442 944ZM525 944L525 798L702 798L702 944ZM923 351L923 700L743 700L743 351C743 254 716 141 483 141C250 141 223 253 223 351L223 700L43 700L43 351C43 107 175-10 483-10C790-10 923 108 923 351Z"  horiz-adv-x="966" vert-adv-y="1000"  />

      
      <glyph glyph-name="unid9" unicode="&#xd9;" d="M677 900L288 980L288 862L677 782ZM923 351L923 700L743 700L743 351C743 254 716 141 483 141C250 141 223 253 223 351L223 700L43 700L43 351C43 107 175-10 483-10C790-10 923 108 923 351Z"  horiz-adv-x="966" vert-adv-y="1000"  />

      
      <glyph glyph-name="uni0170" unicode="&#x0170;" d="M246 912L246 790L453 870L453 992ZM513 912L513 790L720 870L720 992ZM923 351L923 700L743 700L743 351C743 254 716 141 483 141C250 141 223 253 223 351L223 700L43 700L43 351C43 107 175-10 483-10C790-10 923 108 923 351Z"  horiz-adv-x="966" vert-adv-y="1000"  />

      
      <glyph glyph-name="uni016A" unicode="&#x016A;" d="M248 910L248 792L717 792L717 910ZM923 351L923 700L743 700L743 351C743 254 716 141 483 141C250 141 223 253 223 351L223 700L43 700L43 351C43 107 175-10 483-10C790-10 923 108 923 351Z"  horiz-adv-x="966" vert-adv-y="1000"  />

      
      <glyph glyph-name="uni0172" unicode="&#x0172;" d="M743 700L743 351C743 254 716 141 483 141C250 141 223 253 223 351L223 700L43 700L43 351C43 107 175-10 483-10L505-10C463-40 439-71 439-113C439-211 540-230 727-230L727-113C644-113 567-113 567-63C567-38 591-18 612-2C828 29 923 145 923 351L923 700Z"  horiz-adv-x="966" vert-adv-y="1000"  />

      
      <glyph glyph-name="uni016E" unicode="&#x016E;" d="M483 771C639 771 693 820 693 903C693 986 639 1035 483 1035C326 1035 273 986 273 903C273 820 326 771 483 771ZM483 850C418 850 381 863 381 903C381 943 418 956 483 956C548 956 584 943 584 903C584 863 548 850 483 850ZM923 351L923 700L743 700L743 351C743 254 716 141 483 141C250 141 223 253 223 351L223 700L43 700L43 351C43 107 175-10 483-10C790-10 923 108 923 351Z"  horiz-adv-x="966" vert-adv-y="1000"  />

      
      <glyph glyph-name="uni56" unicode="&#x56;" d="M797 700L516 133L235 700L33 700L393 0L639 0L999 700Z"  horiz-adv-x="1032" vert-adv-y="1000"  />

      
      <glyph glyph-name="uni57" unicode="&#x57;" d="M1300 700L1094 149L874 700L653 700L434 150L227 700L33 700L309 0L557 0L764 527L970 0L1219 0L1495 700Z"  horiz-adv-x="1528" vert-adv-y="1000"  />

      
      <glyph glyph-name="uni1E82" unicode="&#x1E82;" d="M958 980L569 900L569 782L958 862ZM1300 700L1094 149L874 700L653 700L434 150L227 700L33 700L309 0L557 0L764 527L970 0L1219 0L1495 700Z"  horiz-adv-x="1528" vert-adv-y="1000"  />

      
      <glyph glyph-name="uni0174" unicode="&#x0174;" d="M971 782L971 900L764 980L557 900L557 782L764 862ZM1300 700L1094 149L874 700L653 700L434 150L227 700L33 700L309 0L557 0L764 527L970 0L1219 0L1495 700Z"  horiz-adv-x="1528" vert-adv-y="1000"  />

      
      <glyph glyph-name="uni1E84" unicode="&#x1E84;" d="M723 944L546 944L546 798L723 798ZM983 944L806 944L806 798L983 798ZM1300 700L1094 149L874 700L653 700L434 150L227 700L33 700L309 0L557 0L764 527L970 0L1219 0L1495 700Z"  horiz-adv-x="1528" vert-adv-y="1000"  />

      
      <glyph glyph-name="uni1E80" unicode="&#x1E80;" d="M958 900L569 980L569 862L958 782ZM1300 700L1094 149L874 700L653 700L434 150L227 700L33 700L309 0L557 0L764 527L970 0L1219 0L1495 700Z"  horiz-adv-x="1528" vert-adv-y="1000"  />

      
      <glyph glyph-name="uni58" unicode="&#x58;" d="M33 0L281 0L549 240L816 0L1065 0L671 350L1065 700L816 700L549 460L281 700L33 700L427 350Z"  horiz-adv-x="1098" vert-adv-y="1000"  />

      
      <glyph glyph-name="uni59" unicode="&#x59;" d="M429 230L429 0L609 0L609 230L1005 700L788 700L519 381L250 700L33 700Z"  horiz-adv-x="1038" vert-adv-y="1000"  />

      
      <glyph glyph-name="unidd" unicode="&#xdd;" d="M324 900L324 782L713 862L713 980ZM429 230L429 0L609 0L609 230L1005 700L788 700L519 381L250 700L33 700Z"  horiz-adv-x="1038" vert-adv-y="1000"  />

      
      <glyph glyph-name="uni0176" unicode="&#x0176;" d="M726 782L726 900L519 980L312 900L312 782L519 862ZM788 700L519 381L250 700L33 700L429 230L429 0L609 0L609 230L1005 700Z"  horiz-adv-x="1038" vert-adv-y="1000"  />

      
      <glyph glyph-name="uni0178" unicode="&#x0178;" d="M301 944L301 798L478 798L478 944ZM561 944L561 798L738 798L738 944ZM429 230L429 0L609 0L609 230L1005 700L788 700L519 381L250 700L33 700Z"  horiz-adv-x="1038" vert-adv-y="1000"  />

      
      <glyph glyph-name="uni1EF2" unicode="&#x1EF2;" d="M713 900L324 980L324 862L713 782ZM429 230L429 0L609 0L609 230L1005 700L788 700L519 381L250 700L33 700Z"  horiz-adv-x="1038" vert-adv-y="1000"  />

      
      <glyph glyph-name="uni5a" unicode="&#x5a;" d="M833 700L43 700L43 549L574 549L43 151L43 0L833 0L833 151L301 151L833 549Z"  horiz-adv-x="876" vert-adv-y="1000"  />

      
      <glyph glyph-name="uni0179" unicode="&#x0179;" d="M632 980L243 900L243 782L632 862ZM833 700L43 700L43 549L574 549L43 151L43 0L833 0L833 151L301 151L833 549Z"  horiz-adv-x="876" vert-adv-y="1000"  />

      
      <glyph glyph-name="uni017D" unicode="&#x017D;" d="M645 864L645 982L438 902L231 982L231 864L438 784ZM833 700L43 700L43 549L574 549L43 151L43 0L833 0L833 151L301 151L833 549Z"  horiz-adv-x="876" vert-adv-y="1000"  />

      
      <glyph glyph-name="uni017B" unicode="&#x017B;" d="M535 944L341 944L341 798L535 798ZM833 700L43 700L43 549L574 549L43 151L43 0L833 0L833 151L301 151L833 549Z"  horiz-adv-x="876" vert-adv-y="1000"  />

      
      <glyph glyph-name="uni61" unicode="&#x61;" d="M443 599C320 599 202 577 82 538L143 413C264 449 358 456 435 456C515 456 659 447 659 335C582 361 489 377 388 377C201 377 33 329 33 176C33 43 136-10 301-10C440-10 555 22 659 73L659 0L831 0L831 297C829 520 689 599 443 599ZM659 183C571 145 443 116 350 116C261 116 204 121 204 183C204 243 281 265 409 265C518 265 599 248 659 229Z"  horiz-adv-x="874" vert-adv-y="1000"  />

      
      <glyph glyph-name="unie1" unicode="&#xe1;" d="M644 869L255 789L255 671L644 751ZM443 599C320 599 202 577 82 538L143 413C264 449 358 456 435 456C515 456 659 447 659 335C582 361 489 377 388 377C201 377 33 329 33 176C33 43 136-10 301-10C440-10 555 22 659 73L659 0L831 0L831 297C829 520 689 599 443 599ZM659 183C571 145 443 116 350 116C261 116 204 121 204 183C204 243 281 265 409 265C518 265 599 248 659 229Z"  horiz-adv-x="874" vert-adv-y="1000"  />

      
      <glyph glyph-name="uni0103" unicode="&#x0103;" d="M450 656C574 656 677 696 677 870L568 870C568 789 524 759 450 759C376 759 331 789 331 870L223 870C223 696 326 656 450 656ZM443 599C320 599 202 577 82 538L143 413C264 449 358 456 435 456C515 456 659 447 659 335C582 361 489 377 388 377C201 377 33 329 33 176C33 43 136-10 301-10C440-10 555 22 659 73L659 0L831 0L831 297C829 520 689 599 443 599ZM659 183C571 145 443 116 350 116C261 116 204 121 204 183C204 243 281 265 409 265C518 265 599 248 659 229Z"  horiz-adv-x="874" vert-adv-y="1000"  />

      
      <glyph glyph-name="unie2" unicode="&#xe2;" d="M657 671L657 789L450 869L243 789L243 671L450 751ZM443 599C320 599 202 577 82 538L143 413C264 449 358 456 435 456C515 456 659 447 659 335C582 361 489 377 388 377C201 377 33 329 33 176C33 43 136-10 301-10C440-10 555 22 659 73L659 0L831 0L831 297C829 520 689 599 443 599ZM659 183C571 145 443 116 350 116C261 116 204 121 204 183C204 243 281 265 409 265C518 265 599 248 659 229Z"  horiz-adv-x="874" vert-adv-y="1000"  />

      
      <glyph glyph-name="unie4" unicode="&#xe4;" d="M409 833L232 833L232 687L409 687ZM669 833L492 833L492 687L669 687ZM443 599C320 599 202 577 82 538L143 413C264 449 358 456 435 456C515 456 659 447 659 335C582 361 489 377 388 377C201 377 33 329 33 176C33 43 136-10 301-10C440-10 555 22 659 73L659 0L831 0L831 297C829 520 689 599 443 599ZM659 183C571 145 443 116 350 116C261 116 204 121 204 183C204 243 281 265 409 265C518 265 599 248 659 229Z"  horiz-adv-x="874" vert-adv-y="1000"  />

      
      <glyph glyph-name="unie0" unicode="&#xe0;" d="M644 789L255 869L255 751L644 671ZM443 599C320 599 202 577 82 538L143 413C264 449 358 456 435 456C515 456 659 447 659 335C582 361 489 377 388 377C201 377 33 329 33 176C33 43 136-10 301-10C440-10 555 22 659 73L659 0L831 0L831 297C829 520 689 599 443 599ZM659 183C571 145 443 116 350 116C261 116 204 121 204 183C204 243 281 265 409 265C518 265 599 248 659 229Z"  horiz-adv-x="874" vert-adv-y="1000"  />

      
      <glyph glyph-name="uni0101" unicode="&#x0101;" d="M684 799L215 799L215 681L684 681ZM443 599C320 599 202 577 82 538L143 413C264 449 358 456 435 456C515 456 659 447 659 335C582 361 489 377 388 377C201 377 33 329 33 176C33 43 136-10 301-10C440-10 555 22 659 73L659 0L831 0L831 297C829 520 689 599 443 599ZM659 183C571 145 443 116 350 116C261 116 204 121 204 183C204 243 281 265 409 265C518 265 599 248 659 229Z"  horiz-adv-x="874" vert-adv-y="1000"  />

      
      <glyph glyph-name="uni0105" unicode="&#x0105;" d="M728-63C728-37 754-17 775 0L831 0L831 297C829 520 689 599 443 599C320 599 202 577 82 538L143 413C264 449 358 456 435 456C515 456 659 447 659 335C582 361 489 377 388 377C201 377 33 329 33 176C33 43 136-10 301-10C440-10 555 22 659 73L659 0L680 0C629-33 600-66 600-113C600-211 701-230 888-230L888-113C805-113 728-113 728-63ZM659 183C571 145 443 116 350 116C261 116 204 121 204 183C204 243 281 265 409 265C518 265 599 248 659 229Z"  horiz-adv-x="874" vert-adv-y="1000"  />

      
      <glyph glyph-name="unie5" unicode="&#xe5;" d="M450 660C606 660 660 709 660 792C660 875 606 924 450 924C293 924 240 875 240 792C240 709 293 660 450 660ZM450 845C515 845 551 832 551 792C551 752 515 739 450 739C385 739 348 752 348 792C348 832 385 845 450 845ZM443 599C320 599 202 577 82 538L143 413C264 449 358 456 435 456C515 456 659 447 659 335C582 361 489 377 388 377C201 377 33 329 33 176C33 43 136-10 301-10C440-10 555 22 659 73L659 0L831 0L831 297C829 520 689 599 443 599ZM659 183C571 145 443 116 350 116C261 116 204 121 204 183C204 243 281 265 409 265C518 265 599 248 659 229Z"  horiz-adv-x="874" vert-adv-y="1000"  />

      
      <glyph glyph-name="unie3" unicode="&#xe3;" d="M361 759C441 759 468 660 583 660C695 660 740 759 740 870L594 870C594 813 581 781 538 781C458 781 431 880 317 880C204 880 160 781 160 670L306 670C306 727 319 759 361 759ZM443 599C320 599 202 577 82 538L143 413C264 449 358 456 435 456C515 456 659 447 659 335C582 361 489 377 388 377C201 377 33 329 33 176C33 43 136-10 301-10C440-10 555 22 659 73L659 0L831 0L831 297C829 520 689 599 443 599ZM659 183C571 145 443 116 350 116C261 116 204 121 204 183C204 243 281 265 409 265C518 265 599 248 659 229Z"  horiz-adv-x="874" vert-adv-y="1000"  />

      
      <glyph glyph-name="unie6" unicode="&#xe6;" d="M1068 129C954 129 864 160 845 254L1481 254C1481 522 1302 599 1078 599C943 599 830 571 758 507C692 573 585 599 443 599C320 599 202 577 82 538L143 413C264 449 358 456 435 456C515 456 659 447 659 335C582 361 489 377 388 377C201 377 33 335 33 176C33 43 141-10 315-10C453-10 627 24 733 107C803 26 925-10 1068-10C1286-10 1432 61 1471 211L1301 211C1258 151 1186 129 1068 129ZM1077 469C1185 469 1269 446 1298 363L851 363C878 446 960 469 1077 469ZM659 194C571 140 454 116 350 116C261 116 204 125 204 187C204 253 281 265 409 265C518 265 599 248 659 229Z"  horiz-adv-x="1514" vert-adv-y="1000"  />

      
      <glyph glyph-name="uni62" unicode="&#x62;" d="M508 599C381 599 278 564 214 497L214 800L43 800L43 0L214 0L214 92C278 25 381-10 508-10C697-10 859 69 859 294C859 519 697 599 508 599ZM451 133C298 133 214 178 214 294C214 411 298 456 451 456C604 456 687 411 687 294C687 178 604 133 451 133Z"  horiz-adv-x="892" vert-adv-y="1000"  />

      
      <glyph glyph-name="uni63" unicode="&#x63;" d="M33 294C33 78 197-10 441-10C661-10 816 62 844 235L669 235C646 159 565 133 441 133C294 133 204 172 204 294C204 417 294 456 441 456C565 456 646 430 669 354L844 354C816 527 661 599 441 599C197 599 33 511 33 294Z"  horiz-adv-x="877" vert-adv-y="1000"  />

      
      <glyph glyph-name="uni0107" unicode="&#x0107;" d="M246 789L246 671L635 751L635 869ZM33 294C33 78 197-10 441-10C661-10 816 62 844 235L669 235C646 159 565 133 441 133C294 133 204 172 204 294C204 417 294 456 441 456C565 456 646 430 669 354L844 354C816 527 661 599 441 599C197 599 33 511 33 294Z"  horiz-adv-x="877" vert-adv-y="1000"  />

      
      <glyph glyph-name="uni010D" unicode="&#x010D;" d="M648 753L648 871L441 791L234 871L234 753L441 673ZM441 133C294 133 204 172 204 294C204 417 294 456 441 456C565 456 646 430 669 354L844 354C816 527 661 599 441 599C197 599 33 511 33 294C33 78 197-10 441-10C661-10 816 62 844 235L669 235C646 159 565 133 441 133Z"  horiz-adv-x="877" vert-adv-y="1000"  />

      
      <glyph glyph-name="unie7" unicode="&#xe7;" d="M441 133C294 133 204 172 204 294C204 417 294 456 441 456C565 456 646 430 669 354L844 354C816 527 661 599 441 599C197 599 33 511 33 294C33 96 171 6 382-8L371-35L430-93C508-75 534-83 534-107C534-145 478-164 347-145L347-230C501-249 663-230 663-116C663-19 546-28 486-47L498-8C688 4 819 77 844 235L669 235C646 159 565 133 441 133Z"  horiz-adv-x="877" vert-adv-y="1000"  />

      
      <glyph glyph-name="uni010B" unicode="&#x010B;" d="M344 833L344 687L538 687L538 833ZM33 294C33 78 197-10 441-10C661-10 816 62 844 235L669 235C646 159 565 133 441 133C294 133 204 172 204 294C204 417 294 456 441 456C565 456 646 430 669 354L844 354C816 527 661 599 441 599C197 599 33 511 33 294Z"  horiz-adv-x="877" vert-adv-y="1000"  />

      
      <glyph glyph-name="uni64" unicode="&#x64;" d="M678 800L678 497C614 564 511 599 384 599C195 599 33 519 33 294C33 69 195-10 384-10C511-10 614 25 678 92L678 0L849 0L849 800ZM441 133C288 133 205 178 205 294C205 411 288 456 441 456C594 456 678 411 678 294C678 178 594 133 441 133Z"  horiz-adv-x="892" vert-adv-y="1000"  />

      
      <glyph glyph-name="unif0" unicode="&#xf0;" d="M725 771L878 837L815 935L611 847C509 901 389 933 263 940L239 791C298 786 356 777 410 761L239 688L303 590L557 699C656 638 724 546 733 415C650 495 534 560 381 560C140 560 43 449 43 278C43 70 196-10 435-10C674-10 906 97 906 386C906 547 836 678 725 771ZM423 133C281 133 214 177 214 278C214 385 288 417 395 417C491 417 614 368 702 255C653 171 552 133 423 133Z"  horiz-adv-x="949" vert-adv-y="1000"  />

      
      <glyph glyph-name="uni010F" unicode="&#x010F;" d="M678 497C614 564 511 599 384 599C195 599 33 519 33 294C33 69 195-10 384-10C511-10 614 25 678 92L678 0L849 0L849 800L678 800ZM899 800L899 666L958 666L907 469L989 469L1070 666L1070 800ZM441 133C288 133 205 178 205 294C205 411 288 456 441 456C594 456 678 411 678 294C678 178 594 133 441 133Z"  horiz-adv-x="1113" vert-adv-y="1000"  />

      
      <glyph glyph-name="uni0111" unicode="&#x0111;" d="M899 749L849 749L849 800L678 800L678 749L419 749L419 631L678 631L678 497C614 564 511 599 384 599C195 599 33 519 33 294C33 69 195-10 384-10C511-10 614 25 678 92L678 0L849 0L849 631L899 631ZM441 133C288 133 205 178 205 294C205 411 288 456 441 456C594 456 678 411 678 294C678 178 594 133 441 133Z"  horiz-adv-x="942" vert-adv-y="1000"  />

      
      <glyph glyph-name="uni65" unicode="&#x65;" d="M431 129C317 129 227 160 208 254L844 254C844 522 665 599 441 599C202 599 33 511 33 294C33 78 207-10 431-10C649-10 795 61 834 211L664 211C621 151 549 129 431 129ZM440 469C548 469 632 446 661 363L214 363C241 446 323 469 440 469Z"  horiz-adv-x="877" vert-adv-y="1000"  />

      
      <glyph glyph-name="unie9" unicode="&#xe9;" d="M634 869L245 789L245 671L634 751ZM431 129C317 129 227 160 208 254L844 254C844 522 665 599 441 599C202 599 33 511 33 294C33 78 207-10 431-10C649-10 795 61 834 211L664 211C621 151 549 129 431 129ZM440 469C548 469 632 446 661 363L214 363C241 446 323 469 440 469Z"  horiz-adv-x="877" vert-adv-y="1000"  />

      
      <glyph glyph-name="uni011B" unicode="&#x011B;" d="M647 753L647 871L440 791L233 871L233 753L440 673ZM431 129C317 129 227 160 208 254L844 254C844 522 665 599 441 599C202 599 33 511 33 294C33 78 207-10 431-10C649-10 795 61 834 211L664 211C621 151 549 129 431 129ZM440 469C548 469 632 446 661 363L214 363C241 446 323 469 440 469Z"  horiz-adv-x="877" vert-adv-y="1000"  />

      
      <glyph glyph-name="uniea" unicode="&#xea;" d="M647 671L647 789L440 869L233 789L233 671L440 751ZM431 129C317 129 227 160 208 254L844 254C844 522 665 599 441 599C202 599 33 511 33 294C33 78 207-10 431-10C649-10 795 61 834 211L664 211C621 151 549 129 431 129ZM440 469C548 469 632 446 661 363L214 363C241 446 323 469 440 469Z"  horiz-adv-x="877" vert-adv-y="1000"  />

      
      <glyph glyph-name="unieb" unicode="&#xeb;" d="M399 833L222 833L222 687L399 687ZM659 833L482 833L482 687L659 687ZM431 129C317 129 227 160 208 254L844 254C844 522 665 599 441 599C202 599 33 511 33 294C33 78 207-10 431-10C649-10 795 61 834 211L664 211C621 151 549 129 431 129ZM440 469C548 469 632 446 661 363L214 363C241 446 323 469 440 469Z"  horiz-adv-x="877" vert-adv-y="1000"  />

      
      <glyph glyph-name="uni0117" unicode="&#x0117;" d="M537 833L343 833L343 687L537 687ZM431 129C317 129 227 160 208 254L844 254C844 522 665 599 441 599C202 599 33 511 33 294C33 78 207-10 431-10C649-10 795 61 834 211L664 211C621 151 549 129 431 129ZM440 469C548 469 632 446 661 363L214 363C241 446 323 469 440 469Z"  horiz-adv-x="877" vert-adv-y="1000"  />

      
      <glyph glyph-name="unie8" unicode="&#xe8;" d="M634 789L245 869L245 751L634 671ZM431 129C317 129 227 160 208 254L844 254C844 522 665 599 441 599C202 599 33 511 33 294C33 78 207-10 431-10C649-10 795 61 834 211L664 211C621 151 549 129 431 129ZM440 469C548 469 632 446 661 363L214 363C241 446 323 469 440 469Z"  horiz-adv-x="877" vert-adv-y="1000"  />

      
      <glyph glyph-name="uni0113" unicode="&#x0113;" d="M674 799L205 799L205 681L674 681ZM431 129C317 129 227 160 208 254L844 254C844 522 665 599 441 599C202 599 33 511 33 294C33 78 207-10 431-10C649-10 795 61 834 211L664 211C621 151 549 129 431 129ZM440 469C548 469 632 446 661 363L214 363C241 446 323 469 440 469Z"  horiz-adv-x="877" vert-adv-y="1000"  />

      
      <glyph glyph-name="uni0119" unicode="&#x0119;" d="M431 129C317 129 227 160 208 254L844 254C844 522 665 599 441 599C202 599 33 511 33 294C33 78 207-10 431-10L446-10C405-40 381-71 381-113C381-211 482-230 669-230L669-113C586-113 509-113 509-63C509-38 534-18 555-1C704 22 803 91 834 211L664 211C621 151 549 129 431 129ZM440 469C548 469 632 446 661 363L214 363C241 446 323 469 440 469Z"  horiz-adv-x="877" vert-adv-y="1000"  />

      
      <glyph glyph-name="uni66" unicode="&#x66;" d="M486 684C530 684 570 682 609 679L609 800C522 810 491 810 432 810C260 810 188 753 188 633L188 589L33 589L33 446L188 446L188 0L360 0L360 446L609 446L609 589L360 589C363 663 388 684 486 684Z"  horiz-adv-x="642" vert-adv-y="1000"  />

      
      <glyph glyph-name="uni67" unicode="&#x67;" d="M677 589L677 494C618 560 519 599 379 599C177 599 33 511 33 303C33 95 177 7 379 7C518 7 617 46 677 112C670-39 604-107 427-107C297-107 165-78 96-65L96-203C153-218 294-250 465-250C688-250 849-146 849 94L849 589ZM441 150C280 150 204 195 204 303C204 411 280 456 441 456C602 456 677 411 677 303C677 195 602 150 441 150Z"  horiz-adv-x="892" vert-adv-y="1000"  />

      
      <glyph glyph-name="uni011F" unicode="&#x011F;" d="M441 656C565 656 668 696 668 870L559 870C559 789 515 759 441 759C367 759 322 789 322 870L214 870C214 696 317 656 441 656ZM677 589L677 494C618 560 519 599 379 599C177 599 33 511 33 303C33 95 177 7 379 7C518 7 617 46 677 112C670-39 604-107 427-107C297-107 165-78 96-65L96-203C153-218 294-250 465-250C688-250 849-146 849 94L849 589ZM441 150C280 150 204 195 204 303C204 411 280 456 441 456C602 456 677 411 677 303C677 195 602 150 441 150Z"  horiz-adv-x="892" vert-adv-y="1000"  />

      
      <glyph glyph-name="uni0123" unicode="&#x0123;" d="M518 814L462 814L518 924L444 924L364 814L364 706L518 706ZM677 589L677 494C618 560 519 599 379 599C177 599 33 511 33 303C33 95 177 7 379 7C518 7 617 46 677 112C670-39 604-107 427-107C297-107 165-78 96-65L96-203C153-218 294-250 465-250C688-250 849-146 849 94L849 589ZM441 150C280 150 204 195 204 303C204 411 280 456 441 456C602 456 677 411 677 303C677 195 602 150 441 150Z"  horiz-adv-x="892" vert-adv-y="1000"  />

      
      <glyph glyph-name="uni0121" unicode="&#x0121;" d="M538 833L344 833L344 687L538 687ZM677 589L677 494C618 560 519 599 379 599C177 599 33 511 33 303C33 95 177 7 379 7C518 7 617 46 677 112C670-39 604-107 427-107C297-107 165-78 96-65L96-203C153-218 294-250 465-250C688-250 849-146 849 94L849 589ZM441 150C280 150 204 195 204 303C204 411 280 456 441 456C602 456 677 411 677 303C677 195 602 150 441 150Z"  horiz-adv-x="892" vert-adv-y="1000"  />

      
      <glyph glyph-name="uni68" unicode="&#x68;" d="M557 599C414 599 298 552 214 486L214 800L43 800L43 0L214 0L214 330C267 392 391 451 506 451C647 451 689 386 689 261L689 0L861 0L863 326C861 543 714 599 557 599Z"  horiz-adv-x="905" vert-adv-y="1000"  />

      
      <glyph glyph-name="uni0127" unicode="&#x0127;" d="M614 599C471 599 355 552 271 486L271 637L523 637L523 755L271 755L271 800L100 800L100 755L43 755L43 637L100 637L100 0L271 0L271 330C324 392 448 451 563 451C704 451 746 386 746 261L746 0L918 0L920 326C918 543 771 599 614 599Z"  horiz-adv-x="963" vert-adv-y="1000"  />

      
      <glyph glyph-name="uni69" unicode="&#x69;" d="M43 800L43 651L214 651L214 800ZM43 589L43 0L214 0L214 589Z"  horiz-adv-x="257" vert-adv-y="1000"  />

      
      <glyph glyph-name="uni0131" unicode="&#x0131;" d="M43 589L43 0L214 0L214 589Z"  horiz-adv-x="257" vert-adv-y="1000"  />

      
      <glyph glyph-name="unied" unicode="&#xed;" d="M-66 789L-66 671L323 751L323 869ZM43 589L43 0L214 0L214 589Z"  horiz-adv-x="257" vert-adv-y="1000"  />

      
      <glyph glyph-name="uniee" unicode="&#xee;" d="M129 869L-78 789L-78 671L129 751L336 671L336 789ZM43 0L214 0L214 589L43 589Z"  horiz-adv-x="257" vert-adv-y="1000"  />

      
      <glyph glyph-name="unief" unicode="&#xef;" d="M-89 833L-89 687L88 687L88 833ZM171 833L171 687L348 687L348 833ZM43 589L43 0L214 0L214 589Z"  horiz-adv-x="257" vert-adv-y="1000"  />

      
      <glyph glyph-name="uniec" unicode="&#xec;" d="M323 789L-66 869L-66 751L323 671ZM43 589L43 0L214 0L214 589Z"  horiz-adv-x="257" vert-adv-y="1000"  />

      
      <glyph glyph-name="uni012B" unicode="&#x012B;" d="M-106 799L-106 681L363 681L363 799ZM43 589L43 0L214 0L214 589Z"  horiz-adv-x="257" vert-adv-y="1000"  />

      
      <glyph glyph-name="uni012F" unicode="&#x012F;" d="M226 833L32 833L32 687L226 687ZM144-63C144-37 170-17 191 0L214 0L214 589L43 589L43 0L96 0C45-33 16-66 16-113C16-211 117-230 304-230L304-113C221-113 144-113 144-63Z"  horiz-adv-x="257" vert-adv-y="1000"  />

      
      <glyph glyph-name="uni6a" unicode="&#x6a;" d="M252 800L252 651L424 651L424 800ZM424 589L252 589L252 36C252-88 230-107 126-107C82-107 52-103 3-97L3-235C60-245 121-250 180-250C370-250 424-153 424 27Z"  horiz-adv-x="466" vert-adv-y="1000"  />

      
      <glyph glyph-name="uni6b" unicode="&#x6b;" d="M935 589L643 589L214 324L214 800L43 800L43 0L214 0L214 136L415 257L697 0L935 0L553 348Z"  horiz-adv-x="968" vert-adv-y="1000"  />

      
      <glyph glyph-name="uni0137" unicode="&#x0137;" d="M935 589L643 589L214 324L214 800L43 800L43 0L214 0L214 136L415 257L697 0L935 0L553 348ZM362-225L418-225L362-335L436-335L516-225L516-117L362-117Z"  horiz-adv-x="968" vert-adv-y="1000"  />

      
      <glyph glyph-name="uni6c" unicode="&#x6c;" d="M43 800L43 0L214 0L214 800Z"  horiz-adv-x="257" vert-adv-y="1000"  />

      
      <glyph glyph-name="uni013A" unicode="&#x013A;" d="M-66 1000L-66 882L323 962L323 1080ZM43 800L43 0L214 0L214 800Z"  horiz-adv-x="257" vert-adv-y="1000"  />

      
      <glyph glyph-name="uni013E" unicode="&#x013E;" d="M129 1002L-78 1082L-78 964L129 884L336 964L336 1082ZM43 0L214 0L214 800L43 800Z"  horiz-adv-x="257" vert-adv-y="1000"  />

      
      <glyph glyph-name="uni013C" unicode="&#x013C;" d="M43 800L43 0L214 0L214 800ZM52-117L52-225L108-225L52-335L126-335L206-225L206-117Z"  horiz-adv-x="257" vert-adv-y="1000"  />

      
      <glyph glyph-name="uni0142" unicode="&#x0142;" d="M565 621L378 544L378 800L207 800L207 474L43 406L43 260L207 328L207 0L378 0L378 398L565 475Z"  horiz-adv-x="608" vert-adv-y="1000"  />

      
      <glyph glyph-name="uni6d" unicode="&#x6d;" d="M1065 599C919 599 814 548 738 491C693 573 609 599 520 599C374 599 278 544 214 493L214 589L43 589L43 0L214 0L214 347C263 400 359 451 458 451C580 451 601 386 601 261L601 0L772 0L774 330C774 341 774 351 773 361C825 408 913 451 1003 451C1125 451 1146 386 1146 261L1146 0L1317 0L1319 330C1317 543 1197 599 1065 599Z"  horiz-adv-x="1362" vert-adv-y="1000"  />

      
      <glyph glyph-name="uni6e" unicode="&#x6e;" d="M557 599C414 599 298 552 214 486L214 589L43 589L43 0L214 0L214 330C267 392 391 451 506 451C647 451 689 386 689 261L689 0L861 0L863 326C861 543 714 599 557 599Z"  horiz-adv-x="905" vert-adv-y="1000"  />

      
      <glyph glyph-name="uni0144" unicode="&#x0144;" d="M686 869L297 789L297 671L686 751ZM557 599C414 599 298 552 214 486L214 589L43 589L43 0L214 0L214 330C267 392 391 451 506 451C647 451 689 386 689 261L689 0L861 0L863 326C861 543 714 599 557 599Z"  horiz-adv-x="905" vert-adv-y="1000"  />

      
      <glyph glyph-name="uni0148" unicode="&#x0148;" d="M699 753L699 871L492 791L285 871L285 753L492 673ZM557 599C414 599 298 552 214 486L214 589L43 589L43 0L214 0L214 330C267 392 391 451 506 451C647 451 689 386 689 261L689 0L861 0L863 326C861 543 714 599 557 599Z"  horiz-adv-x="905" vert-adv-y="1000"  />

      
      <glyph glyph-name="uni0146" unicode="&#x0146;" d="M557 599C414 599 298 552 214 486L214 589L43 589L43 0L214 0L214 330C267 392 391 451 506 451C647 451 689 386 689 261L689 0L861 0L863 326C861 543 714 599 557 599ZM375-225L431-225L375-335L449-335L529-225L529-117L375-117Z"  horiz-adv-x="905" vert-adv-y="1000"  />

      
      <glyph glyph-name="uni014B" unicode="&#x014B;" d="M557 599C414 599 298 552 214 486L214 589L43 589L43 0L214 0L214 330C267 392 391 451 506 451C647 451 689 386 689 261L689 0C689-102 639-121 519-121C485-121 455-117 406-111L406-244C463-254 524-259 583-259C779-259 861-173 861 0L863 326C861 543 714 599 557 599Z"  horiz-adv-x="905" vert-adv-y="1000"  />

      
      <glyph glyph-name="unif1" unicode="&#xf1;" d="M403 759C483 759 510 660 625 660C737 660 782 759 782 870L636 870C636 813 623 781 580 781C500 781 473 880 359 880C246 880 202 781 202 670L348 670C348 727 361 759 403 759ZM557 599C414 599 298 552 214 486L214 589L43 589L43 0L214 0L214 330C267 392 391 451 506 451C647 451 689 386 689 261L689 0L861 0L863 326C861 543 714 599 557 599Z"  horiz-adv-x="905" vert-adv-y="1000"  />

      
      <glyph glyph-name="uni6f" unicode="&#x6f;" d="M441-10C684-10 849 78 849 294C849 511 684 599 441 599C197 599 33 511 33 294C33 78 197-10 441-10ZM441 133C282 133 204 172 204 294C204 417 282 456 441 456C599 456 677 417 677 294C677 172 599 133 441 133Z"  horiz-adv-x="882" vert-adv-y="1000"  />

      
      <glyph glyph-name="unif3" unicode="&#xf3;" d="M246 789L246 671L635 751L635 869ZM441-10C684-10 849 78 849 294C849 511 684 599 441 599C197 599 33 511 33 294C33 78 197-10 441-10ZM441 133C282 133 204 172 204 294C204 417 282 456 441 456C599 456 677 417 677 294C677 172 599 133 441 133Z"  horiz-adv-x="882" vert-adv-y="1000"  />

      
      <glyph glyph-name="unif4" unicode="&#xf4;" d="M648 671L648 789L441 869L234 789L234 671L441 751ZM441 599C197 599 33 511 33 294C33 78 197-10 441-10C684-10 849 78 849 294C849 511 684 599 441 599ZM441 133C282 133 204 172 204 294C204 417 282 456 441 456C599 456 677 417 677 294C677 172 599 133 441 133Z"  horiz-adv-x="882" vert-adv-y="1000"  />

      
      <glyph glyph-name="unif6" unicode="&#xf6;" d="M223 833L223 687L400 687L400 833ZM483 833L483 687L660 687L660 833ZM441-10C684-10 849 78 849 294C849 511 684 599 441 599C197 599 33 511 33 294C33 78 197-10 441-10ZM441 133C282 133 204 172 204 294C204 417 282 456 441 456C599 456 677 417 677 294C677 172 599 133 441 133Z"  horiz-adv-x="882" vert-adv-y="1000"  />

      
      <glyph glyph-name="unif2" unicode="&#xf2;" d="M635 789L246 869L246 751L635 671ZM441-10C684-10 849 78 849 294C849 511 684 599 441 599C197 599 33 511 33 294C33 78 197-10 441-10ZM441 133C282 133 204 172 204 294C204 417 282 456 441 456C599 456 677 417 677 294C677 172 599 133 441 133Z"  horiz-adv-x="882" vert-adv-y="1000"  />

      
      <glyph glyph-name="uni0151" unicode="&#x0151;" d="M204 801L204 679L411 759L411 881ZM471 801L471 679L678 759L678 881ZM441-10C684-10 849 78 849 294C849 511 684 599 441 599C197 599 33 511 33 294C33 78 197-10 441-10ZM441 133C282 133 204 172 204 294C204 417 282 456 441 456C599 456 677 417 677 294C677 172 599 133 441 133Z"  horiz-adv-x="882" vert-adv-y="1000"  />

      
      <glyph glyph-name="uni014D" unicode="&#x014D;" d="M206 799L206 681L675 681L675 799ZM441-10C684-10 849 78 849 294C849 511 684 599 441 599C197 599 33 511 33 294C33 78 197-10 441-10ZM441 133C282 133 204 172 204 294C204 417 282 456 441 456C599 456 677 417 677 294C677 172 599 133 441 133Z"  horiz-adv-x="882" vert-adv-y="1000"  />

      
      <glyph glyph-name="unif8" unicode="&#xf8;" d="M601 583L645 729L497 729L458 599L441 599C197 599 33 511 33 294C33 130 128 39 281 6L237-141L385-141L424-10L441-10C684-10 849 78 849 294C849 459 754 549 601 583ZM204 294C204 410 274 451 415 456L322 144C243 163 204 208 204 294ZM467 133L560 445C638 426 677 381 677 294C677 179 608 138 467 133Z"  horiz-adv-x="882" vert-adv-y="1000"  />

      
      <glyph glyph-name="unif5" unicode="&#xf5;" d="M151 670L297 670C297 727 310 759 352 759C432 759 459 660 574 660C686 660 731 759 731 870L585 870C585 813 572 781 529 781C449 781 422 880 308 880C195 880 151 781 151 670ZM441-10C684-10 849 78 849 294C849 511 684 599 441 599C197 599 33 511 33 294C33 78 197-10 441-10ZM441 133C282 133 204 172 204 294C204 417 282 456 441 456C599 456 677 417 677 294C677 172 599 133 441 133Z"  horiz-adv-x="882" vert-adv-y="1000"  />

      
      <glyph glyph-name="uni0153" unicode="&#x0153;" d="M1097 129C983 129 893 160 874 254L1510 254C1510 522 1331 599 1107 599C964 599 846 568 775 496C704 568 586 599 441 599C197 599 33 511 33 294C33 78 197-10 441-10C587-10 704 22 775 93C847 22 963-10 1097-10C1315-10 1461 61 1500 211L1330 211C1287 151 1215 129 1097 129ZM1106 469C1214 469 1298 446 1327 363L880 363C907 446 989 469 1106 469ZM441 133C282 133 204 172 204 294C204 417 282 456 441 456C599 456 677 417 677 294C677 172 599 133 441 133Z"  horiz-adv-x="1543" vert-adv-y="1000"  />

      
      <glyph glyph-name="uni70" unicode="&#x70;" d="M508 599C381 599 279 564 215 498L215 589L43 589L43-250L215-250L215 91C279 24 381-10 508-10C698-10 859 69 859 294C859 519 698 599 508 599ZM451 133C298 133 215 178 215 294C215 411 298 456 451 456C604 456 688 411 688 294C688 178 604 133 451 133Z"  horiz-adv-x="892" vert-adv-y="1000"  />

      
      <glyph glyph-name="unife" unicode="&#xfe;" d="M511 599C385 599 278 565 214 490L214 800L43 800L43-183L214-183L214 99C278 23 385-10 511-10C687-10 859 58 859 294C859 531 687 599 511 599ZM451 133C287 133 214 183 214 294C214 405 287 456 451 456C615 456 687 405 687 294C687 183 615 133 451 133Z"  horiz-adv-x="896" vert-adv-y="1000"  />

      
      <glyph glyph-name="uni71" unicode="&#x71;" d="M677 589L677 498C613 564 511 599 384 599C194 599 33 519 33 294C33 69 194-10 384-10C511-10 613 24 677 91L677-250L849-250L849 589ZM441 133C288 133 204 178 204 294C204 411 288 456 441 456C594 456 677 411 677 294C677 178 594 133 441 133Z"  horiz-adv-x="892" vert-adv-y="1000"  />

      
      <glyph glyph-name="uni72" unicode="&#x72;" d="M516 599C406 599 302 568 214 489L214 589L43 589L43 0L214 0L214 353C318 434 428 456 524 456C574 456 619 450 675 436L675 579C635 589 586 599 516 599Z"  horiz-adv-x="708" vert-adv-y="1000"  />

      
      <glyph glyph-name="uni0155" unicode="&#x0155;" d="M553 869L164 789L164 671L553 751ZM516 599C406 599 302 568 214 489L214 589L43 589L43 0L214 0L214 353C318 434 428 456 524 456C574 456 619 450 675 436L675 579C635 589 586 599 516 599Z"  horiz-adv-x="708" vert-adv-y="1000"  />

      
      <glyph glyph-name="uni0159" unicode="&#x0159;" d="M566 753L566 871L359 791L152 871L152 753L359 673ZM516 599C406 599 302 568 214 489L214 589L43 589L43 0L214 0L214 353C318 434 428 456 524 456C574 456 619 450 675 436L675 579C635 589 586 599 516 599Z"  horiz-adv-x="708" vert-adv-y="1000"  />

      
      <glyph glyph-name="uni0157" unicode="&#x0157;" d="M516 599C406 599 302 568 214 489L214 589L43 589L43 0L214 0L214 353C318 434 428 456 524 456C574 456 619 450 675 436L675 579C635 589 586 599 516 599ZM52-225L108-225L52-335L126-335L206-225L206-117L52-117Z"  horiz-adv-x="708" vert-adv-y="1000"  />

      
      <glyph glyph-name="uni73" unicode="&#x73;" d="M33 207C33 19 243-10 470-10C697-10 847 19 847 185C847 342 690 348 460 365C257 380 226 386 226 423C226 457 272 469 434 469C593 469 655 457 655 408L827 408C827 570 666 599 444 599C234 599 54 570 54 416C54 274 181 254 440 239C647 226 675 223 675 178C675 132 645 120 460 120C269 120 204 144 204 207Z"  horiz-adv-x="880" vert-adv-y="1000"  />

      
      <glyph glyph-name="uni015B" unicode="&#x015B;" d="M245 789L245 671L634 751L634 869ZM33 207C33 19 243-10 470-10C697-10 847 19 847 185C847 342 690 348 460 365C257 380 226 386 226 423C226 457 272 469 434 469C593 469 655 457 655 408L827 408C827 570 666 599 444 599C234 599 54 570 54 416C54 274 181 254 440 239C647 226 675 223 675 178C675 132 645 120 460 120C269 120 204 144 204 207Z"  horiz-adv-x="880" vert-adv-y="1000"  />

      
      <glyph glyph-name="uni0161" unicode="&#x0161;" d="M647 753L647 871L440 791L233 871L233 753L440 673ZM460 365C257 380 226 386 226 423C226 457 272 469 434 469C593 469 655 457 655 408L827 408C827 570 666 599 444 599C234 599 54 570 54 416C54 274 181 254 440 239C647 226 675 223 675 178C675 132 645 120 460 120C269 120 204 144 204 207L33 207C33 19 243-10 470-10C697-10 847 19 847 185C847 342 690 348 460 365Z"  horiz-adv-x="880" vert-adv-y="1000"  />

      
      <glyph glyph-name="uni015F" unicode="&#x015F;" d="M847 185C847 342 690 348 460 365C257 380 226 386 226 423C226 457 272 469 434 469C593 469 655 457 655 408L827 408C827 570 666 599 444 599C234 599 54 570 54 416C54 274 181 254 440 239C647 226 675 223 675 178C675 132 645 120 460 120C269 120 204 144 204 207L33 207C33 44 191 1 381-8L370-35L429-93C507-75 533-83 533-107C533-145 477-164 346-145L346-230C500-249 662-230 662-116C662-19 545-28 485-47L497-10C709-7 847 26 847 185Z"  horiz-adv-x="880" vert-adv-y="1000"  />

      
      <glyph glyph-name="uni0219" unicode="&#x0219;" d="M33 207C33 19 243-10 470-10C697-10 847 19 847 185C847 342 690 348 460 365C257 380 226 386 226 423C226 457 272 469 434 469C593 469 655 457 655 408L827 408C827 570 666 599 444 599C234 599 54 570 54 416C54 274 181 254 440 239C647 226 675 223 675 178C675 132 645 120 460 120C269 120 204 144 204 207ZM363-117L363-225L419-225L363-335L437-335L517-225L517-117Z"  horiz-adv-x="880" vert-adv-y="1000"  />

      
      <glyph glyph-name="unidf" unicode="&#xdf;" d="M668 390C705 422 727 463 727 514C727 664 600 710 414 710C171 710 43 653 43 424L43 0L214 0L214 424C214 544 284 567 410 567C503 567 555 546 555 489C555 416 502 409 340 409L340 300C606 300 665 291 665 221C665 152 606 143 340 143L340 0C680 0 837 9 837 200C837 315 774 367 668 390Z"  horiz-adv-x="870" vert-adv-y="1000"  />

      
      <glyph glyph-name="uni74" unicode="&#x74;" d="M639 446L639 589L360 589L360 760L188 711L188 589L33 589L33 446L188 446L188 177C188 47 286-10 438-10C517-10 582-5 639 5L639 143C570 133 540 133 486 133C382 133 360 162 360 276L360 446Z"  horiz-adv-x="672" vert-adv-y="1000"  />

      
      <glyph glyph-name="uni0167" unicode="&#x0167;" d="M639 446L639 589L360 589L360 760L188 711L188 589L33 589L33 446L188 446L188 359L87 359L87 241L188 241L188 177C188 47 286-10 438-10C517-10 582-5 639 5L639 143C570 133 540 133 486 133C394 133 366 156 361 241L567 241L567 359L360 359L360 446Z"  horiz-adv-x="672" vert-adv-y="1000"  />

      
      <glyph glyph-name="uni0165" unicode="&#x0165;" d="M481 904L481 1022L274 942L67 1022L67 904L274 824ZM639 446L639 589L360 589L360 760L188 711L188 589L33 589L33 446L188 446L188 177C188 47 286-10 438-10C517-10 582-5 639 5L639 143C570 133 540 133 486 133C382 133 360 162 360 276L360 446Z"  horiz-adv-x="672" vert-adv-y="1000"  />

      
      <glyph glyph-name="uni0163" unicode="&#x0163;" d="M639 446L639 589L360 589L360 760L188 711L188 589L33 589L33 446L188 446L188 177C188 71 253 14 358-4L346-35L405-93C483-75 509-83 509-107C509-145 453-164 322-145L322-230C476-249 638-230 638-116C638-19 521-28 461-47L473-10C536-8 591-3 639 5L639 143C570 133 540 133 486 133C382 133 360 162 360 276L360 446Z"  horiz-adv-x="672" vert-adv-y="1000"  />

      
      <glyph glyph-name="uni021B" unicode="&#x021B;" d="M639 446L639 589L360 589L360 760L188 711L188 589L33 589L33 446L188 446L188 177C188 47 286-10 438-10C517-10 582-5 639 5L639 143C570 133 540 133 486 133C382 133 360 162 360 276L360 446ZM339-225L395-225L339-335L413-335L493-225L493-117L339-117Z"  horiz-adv-x="672" vert-adv-y="1000"  />

      
      <glyph glyph-name="uni75" unicode="&#x75;" d="M691 589L691 259C638 197 514 138 399 138C258 138 216 203 216 328L216 589L44 589L42 263C44 46 191-10 348-10C491-10 607 37 691 103L691 0L862 0L862 589Z"  horiz-adv-x="905" vert-adv-y="1000"  />

      
      <glyph glyph-name="unifa" unicode="&#xfa;" d="M646 869L257 789L257 671L646 751ZM691 589L691 259C638 197 514 138 399 138C258 138 216 203 216 328L216 589L44 589L42 263C44 46 191-10 348-10C491-10 607 37 691 103L691 0L862 0L862 589Z"  horiz-adv-x="905" vert-adv-y="1000"  />

      
      <glyph glyph-name="unifb" unicode="&#xfb;" d="M659 671L659 789L452 869L245 789L245 671L452 751ZM691 589L691 259C638 197 514 138 399 138C258 138 216 203 216 328L216 589L44 589L42 263C44 46 191-10 348-10C491-10 607 37 691 103L691 0L862 0L862 589Z"  horiz-adv-x="905" vert-adv-y="1000"  />

      
      <glyph glyph-name="unifc" unicode="&#xfc;" d="M411 833L234 833L234 687L411 687ZM671 833L494 833L494 687L671 687ZM691 589L691 259C638 197 514 138 399 138C258 138 216 203 216 328L216 589L44 589L42 263C44 46 191-10 348-10C491-10 607 37 691 103L691 0L862 0L862 589Z"  horiz-adv-x="905" vert-adv-y="1000"  />

      
      <glyph glyph-name="unif9" unicode="&#xf9;" d="M646 789L257 869L257 751L646 671ZM691 589L691 259C638 197 514 138 399 138C258 138 216 203 216 328L216 589L44 589L42 263C44 46 191-10 348-10C491-10 607 37 691 103L691 0L862 0L862 589Z"  horiz-adv-x="905" vert-adv-y="1000"  />

      
      <glyph glyph-name="uni0171" unicode="&#x0171;" d="M422 881L215 801L215 679L422 759ZM689 881L482 801L482 679L689 759ZM691 589L691 259C638 197 514 138 399 138C258 138 216 203 216 328L216 589L44 589L42 263C44 46 191-10 348-10C491-10 607 37 691 103L691 0L862 0L862 589Z"  horiz-adv-x="905" vert-adv-y="1000"  />

      
      <glyph glyph-name="uni016B" unicode="&#x016B;" d="M686 799L217 799L217 681L686 681ZM691 589L691 259C638 197 514 138 399 138C258 138 216 203 216 328L216 589L44 589L42 263C44 46 191-10 348-10C491-10 607 37 691 103L691 0L862 0L862 589Z"  horiz-adv-x="905" vert-adv-y="1000"  />

      
      <glyph glyph-name="uni0173" unicode="&#x0173;" d="M757-63C757-37 783-17 804 0L862 0L862 589L691 589L691 259C638 197 514 138 399 138C258 138 216 203 216 328L216 589L44 589L42 263C44 46 191-10 348-10C491-10 607 37 691 103L691 0L709 0C658-33 629-66 629-113C629-211 730-230 917-230L917-113C834-113 757-113 757-63Z"  horiz-adv-x="905" vert-adv-y="1000"  />

      
      <glyph glyph-name="uni016F" unicode="&#x016F;" d="M452 660C608 660 662 709 662 792C662 875 608 924 452 924C295 924 242 875 242 792C242 709 295 660 452 660ZM452 845C517 845 553 832 553 792C553 752 517 739 452 739C387 739 350 752 350 792C350 832 387 845 452 845ZM691 589L691 259C638 197 514 138 399 138C258 138 216 203 216 328L216 589L44 589L42 263C44 46 191-10 348-10C491-10 607 37 691 103L691 0L862 0L862 589Z"  horiz-adv-x="905" vert-adv-y="1000"  />

      
      <glyph glyph-name="uni76" unicode="&#x76;" d="M684 589L454 121L223 589L33 589L331 0L575 0L874 589Z"  horiz-adv-x="907" vert-adv-y="1000"  />

      
      <glyph glyph-name="uni77" unicode="&#x77;" d="M1174 589L981 135L801 589L597 589L417 134L224 589L33 589L298 0L526 0L699 410L872 0L1100 0L1365 589Z"  horiz-adv-x="1398" vert-adv-y="1000"  />

      
      <glyph glyph-name="uni1E83" unicode="&#x1E83;" d="M893 869L504 789L504 671L893 751ZM1174 589L981 135L801 589L597 589L417 134L224 589L33 589L298 0L526 0L699 410L872 0L1100 0L1365 589Z"  horiz-adv-x="1398" vert-adv-y="1000"  />

      
      <glyph glyph-name="uni0175" unicode="&#x0175;" d="M906 671L906 789L699 869L492 789L492 671L699 751ZM1174 589L981 135L801 589L597 589L417 134L224 589L33 589L298 0L526 0L699 410L872 0L1100 0L1365 589Z"  horiz-adv-x="1398" vert-adv-y="1000"  />

      
      <glyph glyph-name="uni1E85" unicode="&#x1E85;" d="M658 833L481 833L481 687L658 687ZM918 833L741 833L741 687L918 687ZM1174 589L981 135L801 589L597 589L417 134L224 589L33 589L298 0L526 0L699 410L872 0L1100 0L1365 589Z"  horiz-adv-x="1398" vert-adv-y="1000"  />

      
      <glyph glyph-name="uni1E81" unicode="&#x1E81;" d="M893 789L504 869L504 751L893 671ZM1174 589L981 135L801 589L597 589L417 134L224 589L33 589L298 0L526 0L699 410L872 0L1100 0L1365 589Z"  horiz-adv-x="1398" vert-adv-y="1000"  />

      
      <glyph glyph-name="uni78" unicode="&#x78;" d="M33 0L263 0L479 195L695 0L925 0L593 294L925 589L695 589L479 394L263 589L33 589L364 294Z"  horiz-adv-x="958" vert-adv-y="1000"  />

      
      <glyph glyph-name="uni79" unicode="&#x79;" d="M705 589L475 103L223 589L33 589L338 0L426 0L307-250L496-250L894 589Z"  horiz-adv-x="927" vert-adv-y="1000"  />

      
      <glyph glyph-name="unifd" unicode="&#xfd;" d="M658 869L269 789L269 671L658 751ZM705 589L475 103L223 589L33 589L338 0L426 0L307-250L496-250L894 589Z"  horiz-adv-x="927" vert-adv-y="1000"  />

      
      <glyph glyph-name="uni0177" unicode="&#x0177;" d="M671 671L671 789L464 869L257 789L257 671L464 751ZM705 589L475 103L223 589L33 589L338 0L426 0L307-250L496-250L894 589Z"  horiz-adv-x="927" vert-adv-y="1000"  />

      
      <glyph glyph-name="uniff" unicode="&#xff;" d="M423 833L246 833L246 687L423 687ZM683 833L506 833L506 687L683 687ZM705 589L475 103L223 589L33 589L338 0L426 0L307-250L496-250L894 589Z"  horiz-adv-x="927" vert-adv-y="1000"  />

      
      <glyph glyph-name="uni1EF3" unicode="&#x1EF3;" d="M658 789L269 869L269 751L658 671ZM705 589L475 103L223 589L33 589L338 0L426 0L307-250L496-250L894 589Z"  horiz-adv-x="927" vert-adv-y="1000"  />

      
      <glyph glyph-name="uni7a" unicode="&#x7a;" d="M737 589L43 589L43 446L484 446L43 143L43 0L737 0L737 143L296 143L737 446Z"  horiz-adv-x="780" vert-adv-y="1000"  />

      
      <glyph glyph-name="uni017A" unicode="&#x017A;" d="M584 869L195 789L195 671L584 751ZM737 589L43 589L43 446L484 446L43 143L43 0L737 0L737 143L296 143L737 446Z"  horiz-adv-x="780" vert-adv-y="1000"  />

      
      <glyph glyph-name="uni017E" unicode="&#x017E;" d="M597 753L597 871L390 791L183 871L183 753L390 673ZM737 589L43 589L43 446L484 446L43 143L43 0L737 0L737 143L296 143L737 446Z"  horiz-adv-x="780" vert-adv-y="1000"  />

      
      <glyph glyph-name="uni017C" unicode="&#x017C;" d="M487 833L293 833L293 687L487 687ZM737 589L43 589L43 446L484 446L43 143L43 0L737 0L737 143L296 143L737 446Z"  horiz-adv-x="780" vert-adv-y="1000"  />

      
      <glyph glyph-name="uni30" unicode="&#x30;" d="M443-10C720-10 853 119 853 351C853 582 720 710 443 710C165 710 33 583 33 351C33 118 165-10 443-10ZM443 141C285 141 213 219 213 351C213 482 285 559 443 559C601 559 673 481 673 351C673 220 601 141 443 141Z"  horiz-adv-x="886" vert-adv-y="1000"  />

      
      <glyph glyph-name="uni31" unicode="&#x31;" d="M463 151L463 700L283 700C283 566 146 566 43 566L43 414C116 414 209 414 285 481L284 151L43 151L43 0L703 0L703 151Z"  horiz-adv-x="746" vert-adv-y="1000"  />

      
      <glyph glyph-name="uni32" unicode="&#x32;" d="M827 490C827 664 686 710 445 710C213 710 49 658 49 425L229 425C229 536 300 559 455 559C610 559 647 534 647 476C647 317 33 382 33 91L33 0L817 0L817 151L285 151C329 290 827 219 827 490Z"  horiz-adv-x="860" vert-adv-y="1000"  />

      
      <glyph glyph-name="uni33" unicode="&#x33;" d="M719 350C786 382 827 430 827 503C827 658 686 710 440 710C197 710 33 658 33 435L213 435C213 541 279 559 450 559C605 559 647 541 647 480C647 410 588 404 350 404L350 296C593 296 647 290 647 220C647 153 593 141 450 141C296 141 213 153 213 265L33 265C33 42 197-10 440-10C686-10 827 42 827 197C827 270 786 318 719 350Z"  horiz-adv-x="860" vert-adv-y="1000"  />

      
      <glyph glyph-name="uni34" unicode="&#x34;" d="M857 266L717 266L717 700L537 700L43 266L43 114L537 114L537 0L717 0L717 114L857 114ZM237 266L537 520L537 266Z"  horiz-adv-x="900" vert-adv-y="1000"  />

      
      <glyph glyph-name="uni35" unicode="&#x35;" d="M539 472C425 472 350 452 247 408L292 557L777 557L777 700L158 700L68 336L216 307C336 355 405 369 474 369C611 369 647 323 647 257C647 186 599 141 450 141C296 141 213 164 213 243L33 243C33 36 213-10 445-10C679-10 827 63 827 237C827 387 720 472 539 472Z"  horiz-adv-x="860" vert-adv-y="1000"  />

      
      <glyph glyph-name="uni36" unicode="&#x36;" d="M506 472C374 472 281 438 227 396C245 538 323 567 465 567C595 567 697 544 796 525L796 668C711 686 595 710 421 710C215 710 43 623 43 333C43 107 163-10 463-10C710-10 843 72 843 235C843 404 710 472 506 472ZM443 133C284 133 223 177 223 250C223 324 289 366 443 366C614 366 663 323 663 250C663 177 613 133 443 133Z"  horiz-adv-x="886" vert-adv-y="1000"  />

      
      <glyph glyph-name="uni37" unicode="&#x37;" d="M20 700L20 549L514 549C259 409 174 180 174 0L354 0C354 180 478 409 763 549L763 700Z"  horiz-adv-x="783" vert-adv-y="1000"  />

      
      <glyph glyph-name="uni38" unicode="&#x38;" d="M707 397C757 427 783 470 783 526C783 652 684 710 443 710C201 710 103 652 103 526C103 470 129 427 179 397C77 361 33 297 33 208C33 67 131-10 443-10C754-10 853 68 853 208C853 297 808 361 707 397ZM443 580C581 580 620 561 620 512C620 463 581 444 443 444C304 444 266 463 266 512C266 561 305 580 443 580ZM443 129C267 129 213 161 213 229C213 296 266 327 443 327C620 327 673 295 673 229C673 161 619 129 443 129Z"  horiz-adv-x="886" vert-adv-y="1000"  />

      
      <glyph glyph-name="uni39" unicode="&#x39;" d="M413 710C166 710 33 628 33 465C33 296 166 228 370 228C502 228 595 262 649 304C631 162 553 133 411 133C281 133 179 156 80 175L80 32C165 14 281-10 455-10C661-10 833 77 833 367C833 593 713 710 413 710ZM433 334C262 334 213 377 213 450C213 523 263 567 433 567C592 567 653 523 653 450C653 376 587 334 433 334Z"  horiz-adv-x="866" vert-adv-y="1000"  />

      
      <glyph glyph-name="uni2044" unicode="&#x2044;" d="M478 720L302 720L42-150L218-150Z"  horiz-adv-x="521" vert-adv-y="1000"  />

      
      <glyph glyph-name="uni2a" unicode="&#x2a;" d="M43 513L106 404L239 492L229 367L354 367L344 492L477 404L540 513L397 583L540 654L476 763L344 675L354 800L228 799L238 675L106 763L43 654L186 583Z"  horiz-adv-x="583" vert-adv-y="1000"  />

      
      <glyph glyph-name="uni5c" unicode="&#x5c;" d="M43 720L303-150L479-150L219 720Z"  horiz-adv-x="521" vert-adv-y="1000"  />

      
      <glyph glyph-name="unib7" unicode="&#xb7;" d="M43 381L43 247L214 247L214 381Z"  horiz-adv-x="257" vert-adv-y="1000"  />

      
      <glyph glyph-name="uni2022" unicode="&#x2022;" d="M201 208C308 208 359 243 359 321C359 398 308 433 201 433C93 433 43 398 43 321C43 243 93 208 201 208Z"  horiz-adv-x="402" vert-adv-y="1000"  />

      
      <glyph glyph-name="uni3a" unicode="&#x3a;" d="M43 434L43 300L214 300L214 434ZM43 134L43 0L214 0L214 134Z"  horiz-adv-x="257" vert-adv-y="1000"  />

      
      <glyph glyph-name="uni2c" unicode="&#x2c;" d="M43 134L43 0L102 0L51-197L133-197L214 0L214 134Z"  horiz-adv-x="257" vert-adv-y="1000"  />

      
      <glyph glyph-name="uni2026" unicode="&#x2026;" d="M43 134L43 0L214 0L214 134ZM290 134L290 0L461 0L461 134ZM537 134L537 0L708 0L708 134Z"  horiz-adv-x="751" vert-adv-y="1000"  />

      
      <glyph glyph-name="uni21" unicode="&#x21;" d="M223 700L43 700L47 217L219 217ZM47 134L47 0L218 0L218 134Z"  horiz-adv-x="266" vert-adv-y="1000"  />

      
      <glyph glyph-name="unia1" unicode="&#xa1;" d="M47 466L218 466L218 600L47 600ZM223-100L219 383L47 383L43-100Z"  horiz-adv-x="266" vert-adv-y="1000"  />

      
      <glyph glyph-name="uni23" unicode="&#x23;" d="M1238 409L1238 551L1052 551L1103 720L927 720L876 551L587 551L638 720L462 720L411 551L163 551L163 409L369 409L304 191L63 191L63 49L261 49L202-150L378-150L437 49L726 49L667-150L843-150L902 49L1138 49L1138 191L945 191L1010 409ZM769 191L480 191L545 409L834 409Z"  horiz-adv-x="1301" vert-adv-y="1000"  />

      
      <glyph glyph-name="uni2e" unicode="&#x2e;" d="M43 134L43 0L214 0L214 134Z"  horiz-adv-x="257" vert-adv-y="1000"  />

      
      <glyph glyph-name="uni3f" unicode="&#x3f;" d="M458 217C475 349 797 292 797 506C797 658 656 710 430 710C207 710 43 658 43 436L223 436C223 536 294 559 440 559C569 559 617 533 617 486C617 358 287 447 287 217ZM287 134L287 0L458 0L458 134Z"  horiz-adv-x="840" vert-adv-y="1000"  />

      
      <glyph glyph-name="unibf" unicode="&#xbf;" d="M553 466L553 600L382 600L382 466ZM382 383C365 251 43 308 43 94C43-58 184-110 410-110C633-110 797-58 797 164L617 164C617 64 546 41 400 41C271 41 223 67 223 114C223 242 553 153 553 383Z"  horiz-adv-x="840" vert-adv-y="1000"  />

      
      <glyph glyph-name="uni22" unicode="&#x22;" d="M223 720L43 720L57 400L209 400ZM489 720L309 720L323 400L475 400Z"  horiz-adv-x="531" vert-adv-y="1000"  />

      
      <glyph glyph-name="uni27" unicode="&#x27;" d="M223 720L43 720L57 400L209 400Z"  horiz-adv-x="266" vert-adv-y="1000"  />

      
      <glyph glyph-name="uni3b" unicode="&#x3b;" d="M43 434L43 300L214 300L214 434ZM43 0L102 0L51-197L133-197L214 0L214 134L43 134Z"  horiz-adv-x="257" vert-adv-y="1000"  />

      
      <glyph glyph-name="uni2f" unicode="&#x2f;" d="M478 720L302 720L42-150L218-150Z"  horiz-adv-x="521" vert-adv-y="1000"  />

      
      <glyph glyph-name="uni5f" unicode="&#x5f;" d="M63-63L63-197L1063-197L1063-63Z"  horiz-adv-x="1126" vert-adv-y="1000"  />

      
      <glyph glyph-name="uni7b" unicode="&#x7b;" d="M43 181C131 181 191 181 191 81C191-139 240-200 613-200L613-49C386-49 328-29 328 151C328 271 238 281 199 281L199 321C238 321 328 331 328 451C328 629 386 649 613 649L613 800C255 800 191 741 191 521C191 421 131 421 43 421Z"  horiz-adv-x="656" vert-adv-y="1000"  />

      
      <glyph glyph-name="uni7d" unicode="&#x7d;" d="M613 181L613 421C525 421 465 421 465 521C465 741 401 800 43 800L43 649C270 649 328 629 328 451C328 331 418 321 457 321L457 281C418 281 328 271 328 151C328-29 270-49 43-49L43-200C416-200 465-139 465 81C465 181 525 181 613 181Z"  horiz-adv-x="656" vert-adv-y="1000"  />

      
      <glyph glyph-name="uni5b" unicode="&#x5b;" d="M613 649L613 800L43 800L43-200L613-200L613-49L223-49L223 649Z"  horiz-adv-x="656" vert-adv-y="1000"  />

      
      <glyph glyph-name="uni5d" unicode="&#x5d;" d="M613 800L43 800L43 649L433 649L433-49L43-49L43-200L613-200Z"  horiz-adv-x="656" vert-adv-y="1000"  />

      
      <glyph glyph-name="uni28" unicode="&#x28;" d="M43 301C43-83 198-200 613-200L613-49C330-49 223 17 223 301C223 584 329 649 613 649L613 800C198 800 43 684 43 301Z"  horiz-adv-x="656" vert-adv-y="1000"  />

      
      <glyph glyph-name="uni29" unicode="&#x29;" d="M613 301C613 684 458 800 43 800L43 649C327 649 433 584 433 301C433 17 326-49 43-49L43-200C458-200 613-83 613 301Z"  horiz-adv-x="656" vert-adv-y="1000"  />

      
      <glyph glyph-name="uni2014" unicode="&#x2014;" d="M63 411L63 269L1263 269L1263 411Z"  horiz-adv-x="1326" vert-adv-y="1000"  />

      
      <glyph glyph-name="uni2013" unicode="&#x2013;" d="M63 411L63 269L1063 269L1063 411Z"  horiz-adv-x="1126" vert-adv-y="1000"  />

      
      <glyph glyph-name="uni2d" unicode="&#x2d;" d="M63 411L63 269L863 269L863 411Z"  horiz-adv-x="926" vert-adv-y="1000"  />

      
      <glyph glyph-name="uniab" unicode="&#xab;" d="M303 589L43 294L303 0L536 0L276 294L536 589ZM667 589L407 294L667 0L900 0L640 294L900 589Z"  horiz-adv-x="943" vert-adv-y="1000"  />

      
      <glyph glyph-name="unibb" unicode="&#xbb;" d="M299 589L66 589L326 294L66 0L299 0L559 294ZM663 589L430 589L690 294L430 0L663 0L923 294Z"  horiz-adv-x="966" vert-adv-y="1000"  />

      
      <glyph glyph-name="uni2039" unicode="&#x2039;" d="M303 589L43 294L303 0L536 0L276 294L536 589Z"  horiz-adv-x="579" vert-adv-y="1000"  />

      
      <glyph glyph-name="uni203A" unicode="&#x203A;" d="M276 589L43 589L303 294L43 0L276 0L536 294Z"  horiz-adv-x="579" vert-adv-y="1000"  />

      
      <glyph glyph-name="uni201E" unicode="&#x201E;" d="M43 0L102 0L51-197L133-197L214 0L214 134L43 134ZM277 134L277 0L336 0L285-197L367-197L448 0L448 134Z"  horiz-adv-x="491" vert-adv-y="1000"  />

      
      <glyph glyph-name="uni201C" unicode="&#x201C;" d="M68 400L239 400L279 720L132 720ZM302 400L473 400L513 720L366 720Z"  horiz-adv-x="566" vert-adv-y="1000"  />

      
      <glyph glyph-name="uni201D" unicode="&#x201D;" d="M264 720L93 720L53 400L200 400ZM498 720L327 720L287 400L434 400Z"  horiz-adv-x="543" vert-adv-y="1000"  />

      
      <glyph glyph-name="uni2018" unicode="&#x2018;" d="M45 400L216 400L256 720L109 720Z"  horiz-adv-x="309" vert-adv-y="1000"  />

      
      <glyph glyph-name="uni2019" unicode="&#x2019;" d="M264 720L93 720L53 400L200 400Z"  horiz-adv-x="317" vert-adv-y="1000"  />

      
      <glyph glyph-name="uni201A" unicode="&#x201A;" d="M43 134L43 0L102 0L51-197L133-197L214 0L214 134Z"  horiz-adv-x="257" vert-adv-y="1000"  />

      
      <glyph glyph-name="unia2" unicode="&#xa2;" d="M533 192L533 509C622 501 680 472 699 410L874 410C849 566 720 640 533 653L533 800L413 800L413 653C201 640 63 549 63 350C63 152 201 61 413 48L413-100L533-100L533 48C720 61 849 135 874 291L699 291C680 229 622 200 533 192ZM234 350C234 456 301 500 413 510L413 191C301 201 234 245 234 350Z"  horiz-adv-x="937" vert-adv-y="1000"  />

      
      <glyph glyph-name="unia4" unicode="&#xa4;" d="M879 344C879 457 834 535 757 584L878 706L797 786L642 631C591 643 534 649 471 649C411 649 356 644 307 632L153 786L72 706L190 588C110 539 63 460 63 344C63 227 111 147 194 99L72-23L153-103L311 55C359 45 413 40 471 40C532 40 587 45 637 57L797-103L878-23L753 102C833 151 879 229 879 344ZM234 344C234 467 312 506 471 506C629 506 707 467 707 344C707 222 629 183 471 183C312 183 234 222 234 344Z"  horiz-adv-x="942" vert-adv-y="1000"  />

      
      <glyph glyph-name="uni24" unicode="&#x24;" d="M957 215C957 378 812 404 574 418L574 565C695 558 747 534 747 471L927 471C927 628 795 697 574 708L574 800L454 800L454 709C222 703 84 651 84 507C84 360 190 309 454 291L454 135C289 142 243 176 243 241L63 241C63 55 208-1 454-9L454-100L574-100L574-9C804-4 957 41 957 215ZM264 498C264 547 301 565 454 567L454 426C298 436 264 449 264 498ZM574 133L574 285C745 274 777 261 777 209C777 158 729 137 574 133Z"  horiz-adv-x="1020" vert-adv-y="1000"  />

      
      <glyph glyph-name="uni20AC" unicode="&#x20AC;" d="M546 659C620 659 693 649 803 629L803 780C693 800 620 810 519 810C291 810 183 704 152 495L63 495L63 387L143 387C143 375 143 363 143 351L143 315L63 315L63 207L152 207C182-9 290-110 519-110C620-110 693-100 803-80L803 71C693 51 620 41 546 41C410 41 353 89 332 207L687 207L687 315L323 315C323 327 323 339 323 351L323 387L687 387L687 495L333 495C353 612 410 659 546 659Z"  horiz-adv-x="866" vert-adv-y="1000"  />

      
      <glyph glyph-name="unia3" unicode="&#xa3;" d="M566 659C640 659 703 649 803 629L803 780C693 800 620 810 519 810C238 810 157 676 195 424L63 424L63 315L205 315C207 182 153 122 63 51L63-100L803-100L803 51L243 51C326 107 379 185 381 315L687 315L687 424L373 424C357 589 371 659 566 659Z"  horiz-adv-x="866" vert-adv-y="1000"  />

      
      <glyph glyph-name="unia5" unicode="&#xa5;" d="M1035 800L816 800L549 481L282 800L63 800L422 374L158 374L158 266L459 266L459 194L158 194L158 86L459 86L459-100L639-100L639 86L942 86L942 194L639 194L639 266L942 266L942 374L676 374Z"  horiz-adv-x="1098" vert-adv-y="1000"  />

      
      <glyph glyph-name="uni2b" unicode="&#x2b;" d="M863 411L540 411L540 680L369 680L369 411L63 411L63 269L369 269L369 0L540 0L540 269L863 269Z"  horiz-adv-x="926" vert-adv-y="1000"  />

      
      <glyph glyph-name="uni2212" unicode="&#x2212;" d="M63 411L63 269L863 269L863 411Z"  horiz-adv-x="926" vert-adv-y="1000"  />

      
      <glyph glyph-name="unid7" unicode="&#xd7;" d="M827 474L756 597L445 417L134 597L63 474L303 336L63 197L134 74L445 254L756 74L827 197L587 336Z"  horiz-adv-x="890" vert-adv-y="1000"  />

      
      <glyph glyph-name="unif7" unicode="&#xf7;" d="M377 634L377 500L548 500L548 634ZM63 411L63 269L863 269L863 411ZM377 180L377 46L548 46L548 180Z"  horiz-adv-x="926" vert-adv-y="1000"  />

      
      <glyph glyph-name="uni3d" unicode="&#x3d;" d="M63 571L63 429L863 429L863 571ZM63 251L63 109L863 109L863 251Z"  horiz-adv-x="926" vert-adv-y="1000"  />

      
      <glyph glyph-name="uni2260" unicode="&#x2260;" d="M863 429L863 571L619 571L680 775L504 775L443 571L63 571L63 429L401 429L347 251L63 251L63 109L305 109L244-95L420-95L481 109L863 109L863 251L523 251L577 429Z"  horiz-adv-x="926" vert-adv-y="1000"  />

      
      <glyph glyph-name="uni3e" unicode="&#x3e;" d="M63 600L63 449L636 340L63 231L63 80L773 220L773 460Z"  horiz-adv-x="836" vert-adv-y="1000"  />

      
      <glyph glyph-name="uni3c" unicode="&#x3c;" d="M773 600L63 460L63 220L773 80L773 231L200 340L773 449Z"  horiz-adv-x="836" vert-adv-y="1000"  />

      
      <glyph glyph-name="uni2265" unicode="&#x2265;" d="M63 700L63 551L642 447L63 343L63 194L773 339L773 556ZM63 0L773 0L773 143L63 143Z"  horiz-adv-x="836" vert-adv-y="1000"  />

      
      <glyph glyph-name="uni2264" unicode="&#x2264;" d="M773 700L63 556L63 339L773 194L773 343L194 447L773 551ZM63 0L773 0L773 143L63 143Z"  horiz-adv-x="836" vert-adv-y="1000"  />

      
      <glyph glyph-name="unib1" unicode="&#xb1;" d="M540 541L540 700L369 700L369 541L63 541L63 399L369 399L369 240L540 240L540 399L863 399L863 541ZM63 29L863 29L863 171L63 171Z"  horiz-adv-x="926" vert-adv-y="1000"  />

      
      <glyph glyph-name="uni2248" unicode="&#x2248;" d="M63 380L226 380C226 511 253 549 317 549C442 549 464 380 643 380C810 380 863 500 863 700L700 700C700 569 673 531 609 531C484 531 462 700 283 700C116 700 63 580 63 380ZM63 0L226 0C226 131 253 169 317 169C442 169 464 0 643 0C810 0 863 120 863 320L700 320C700 189 673 151 609 151C484 151 462 320 283 320C116 320 63 200 63 0Z"  horiz-adv-x="926" vert-adv-y="1000"  />

      
      <glyph glyph-name="uni7e" unicode="&#x7e;" d="M63 180L226 180C226 311 253 349 317 349C442 349 464 180 643 180C810 180 863 300 863 500L700 500C700 369 673 331 609 331C484 331 462 500 283 500C116 500 63 380 63 180Z"  horiz-adv-x="926" vert-adv-y="1000"  />

      
      <glyph glyph-name="uniac" unicode="&#xac;" d="M863 411L63 411L63 269L691 269L691 73L863 73Z"  horiz-adv-x="926" vert-adv-y="1000"  />

      
      <glyph glyph-name="uni2205" unicode="&#x2205;" d="M1089 757L984 862L865 743C789 786 693 810 578 810C250 810 75 610 75 351C75 237 109 133 176 54L65-57L170-162L290-42C367-85 463-110 578-110C907-110 1080 92 1080 351C1080 466 1046 569 980 648ZM246 351C246 552 365 667 578 667C647 667 706 655 754 632L291 169C261 218 246 279 246 351ZM908 351C908 149 790 33 578 33C509 33 450 45 401 69L864 532C893 484 908 423 908 351Z"  horiz-adv-x="1154" vert-adv-y="1000"  />

      
      <glyph glyph-name="uni221E" unicode="&#x221E;" d="M63 299C63 124 162 20 352 20C481 20 565 77 654 192C743 77 828 20 957 20C1147 20 1246 124 1246 299C1246 469 1138 582 957 582C828 582 744 524 655 408C566 524 481 582 352 582C171 582 63 469 63 299ZM234 299C234 395 283 439 369 439C428 439 493 413 565 300C494 188 429 163 369 163C273 163 234 200 234 299ZM744 299C816 413 880 439 940 439C1026 439 1074 395 1074 299C1074 200 1036 163 940 163C878 163 814 188 744 299Z"  horiz-adv-x="1309" vert-adv-y="1000"  />

      
      <glyph glyph-name="uni222B" unicode="&#x222B;" d="M63-150C262-150 490-152 561 198L613 452C655 665 822 657 936 657L936 800C737 800 509 802 438 452L385 198C344-15 177-7 63-7Z"  horiz-adv-x="999" vert-adv-y="1000"  />

      
      <glyph glyph-name="uni220F" unicode="&#x220F;" d="M1246 720L63 720L63 560L297 560L297-150L468-150L468 560L841 560L841-150L1012-150L1012 560L1246 560Z"  horiz-adv-x="1309" vert-adv-y="1000"  />

      
      <glyph glyph-name="uni2211" unicode="&#x2211;" d="M803 800L63 800L63 657L417 325L63-7L63-150L803-150L803-7L289-7L643 325L289 657L803 657Z"  horiz-adv-x="866" vert-adv-y="1000"  />

      
      <glyph glyph-name="uni221A" unicode="&#x221A;" d="M1293 800L866 800L601 0L432 351L63 351L63 208L319 208L485-150L725-150L995 657L1293 657Z"  horiz-adv-x="1356" vert-adv-y="1000"  />

      
      <glyph glyph-name="uni2202" unicode="&#x2202;" d="M283 800L259 651C509 632 737 521 753 275C670 355 554 420 401 420C160 420 63 309 63 138C63-70 216-150 455-150C694-150 926-43 926 246C926 580 626 780 283 800ZM443-7C301-7 234 37 234 138C234 245 308 277 415 277C511 277 634 228 722 115C673 31 572-7 443-7Z"  horiz-adv-x="989" vert-adv-y="1000"  />

      
      <glyph glyph-name="uni25" unicode="&#x25;" d="M368 259C585 259 674 382 674 535C674 687 585 810 368 810C151 810 63 687 63 535C63 382 151 259 368 259ZM1062 800L886 800L626-70L802-70ZM368 402C296 402 234 432 234 535C234 638 296 667 368 667C441 667 502 638 502 535C502 432 441 402 368 402ZM1321-80C1538-80 1627 43 1627 196C1627 348 1538 471 1321 471C1104 471 1016 348 1016 196C1016 43 1104-80 1321-80ZM1321 63C1249 63 1187 93 1187 196C1187 299 1249 328 1321 328C1394 328 1455 299 1455 196C1455 93 1394 63 1321 63Z"  horiz-adv-x="1690" vert-adv-y="1000"  />

      
      <glyph glyph-name="uni2030" unicode="&#x2030;" d="M368 259C585 259 674 382 674 535C674 687 585 810 368 810C151 810 63 687 63 535C63 382 151 259 368 259ZM1062 800L886 800L626-70L802-70ZM368 402C296 402 234 432 234 535C234 638 296 667 368 667C441 667 502 638 502 535C502 432 441 402 368 402ZM1321-80C1538-80 1627 43 1627 196C1627 348 1538 471 1321 471C1104 471 1016 348 1016 196C1016 43 1104-80 1321-80ZM2003-80C2221-80 2309 43 2309 196C2309 348 2221 471 2003 471C1787 471 1698 348 1698 196C1698 43 1787-80 2003-80ZM1321 63C1249 63 1187 93 1187 196C1187 299 1249 328 1321 328C1394 328 1455 299 1455 196C1455 93 1394 63 1321 63ZM2003 63C1931 63 1870 93 1870 196C1870 299 1931 328 2003 328C2076 328 2138 299 2138 196C2138 93 2076 63 2003 63Z"  horiz-adv-x="2372" vert-adv-y="1000"  />

      
      <glyph glyph-name="uni2191" unicode="&#x2191;" d="M566-110C895-110 1068 92 1068 351C1068 610 895 810 566 810C238 810 63 610 63 351C63 92 238-110 566-110ZM632 30L499 30L499 440L374 310L279 406L565 690L853 406L757 310L632 440Z"  horiz-adv-x="1131" vert-adv-y="1000"  />

      
      <glyph glyph-name="uni2197" unicode="&#x2197;" d="M566-110C895-110 1068 92 1068 351C1068 610 895 810 566 810C238 810 63 610 63 351C63 92 238-110 566-110ZM397 89L303 182L593 472L407 469L414 604L817 602L819 198L683 192L687 378Z"  horiz-adv-x="1131" vert-adv-y="1000"  />

      
      <glyph glyph-name="uni2192" unicode="&#x2192;" d="M566-110C895-110 1068 92 1068 351C1068 610 895 810 566 810C238 810 63 610 63 351C63 92 238-110 566-110ZM241 284L241 416L651 416L521 542L617 637L901 351L617 63L521 158L651 284Z"  horiz-adv-x="1131" vert-adv-y="1000"  />

      
      <glyph glyph-name="uni2198" unicode="&#x2198;" d="M566 810C238 810 63 608 63 349C63 90 238-110 566-110C895-110 1068 90 1068 349C1068 608 895 810 566 810ZM397 611L687 322L683 508L819 502L817 98L414 96L407 231L593 228L303 518Z"  horiz-adv-x="1131" vert-adv-y="1000"  />

      
      <glyph glyph-name="uni2193" unicode="&#x2193;" d="M566 810C238 810 63 608 63 349C63 90 238-110 566-110C895-110 1068 90 1068 349C1068 608 895 810 566 810ZM632 670L632 260L757 390L853 294L565 10L279 294L374 390L499 260L499 670Z"  horiz-adv-x="1131" vert-adv-y="1000"  />

      
      <glyph glyph-name="uni2199" unicode="&#x2199;" d="M565 810C236 810 63 608 63 349C63 90 236-110 565-110C893-110 1068 90 1068 349C1068 608 893 810 565 810ZM734 611L828 518L538 228L724 231L717 96L314 98L312 502L448 508L444 322Z"  horiz-adv-x="1131" vert-adv-y="1000"  />

      
      <glyph glyph-name="uni2190" unicode="&#x2190;" d="M565-110C893-110 1068 92 1068 351C1068 610 893 810 565 810C236 810 63 610 63 351C63 92 236-110 565-110ZM890 284L480 284L610 158L514 63L230 351L514 637L610 542L480 416L890 416Z"  horiz-adv-x="1131" vert-adv-y="1000"  />

      
      <glyph glyph-name="uni2196" unicode="&#x2196;" d="M565-110C893-110 1068 92 1068 351C1068 610 893 810 565 810C236 810 63 610 63 351C63 92 236-110 565-110ZM734 89L444 378L448 192L312 198L314 602L717 604L724 469L538 472L828 182Z"  horiz-adv-x="1131" vert-adv-y="1000"  />

      
      <glyph glyph-name="uni2194" unicode="&#x2194;" d="M566-110C895-110 1068 92 1068 351C1068 610 895 810 566 810C238 810 63 610 63 351C63 92 238-110 566-110ZM952 349L738 63L639 158L743 289L391 289L495 158L396 63L180 348L396 637L495 542L391 411L743 411L639 542L738 637Z"  horiz-adv-x="1131" vert-adv-y="1000"  />

      
      <glyph glyph-name="uni2195" unicode="&#x2195;" d="M566-110C895-110 1068 92 1068 351C1068 610 895 810 566 810C238 810 63 610 63 351C63 92 238-110 566-110ZM567 715L853 501L757 401L627 505L627 197L757 301L853 201L567-15L279 201L374 301L505 197L505 505L374 401L279 501Z"  horiz-adv-x="1131" vert-adv-y="1000"  />

      
      <glyph glyph-name="uni25CA" unicode="&#x25CA;" d="M578 800L350 800L63 350L350-100L578-100L864 350ZM464-6L237 350L464 706L689 350Z"  horiz-adv-x="927" vert-adv-y="1000"  />

      
      <glyph glyph-name="uni40" unicode="&#x40;" d="M662 810C289 810 63 620 63 268C63-157 285-288 901-288L911-145C475-145 234-108 234 268C234 562 429 667 672 667C796 667 981 649 996 465C939 524 851 555 733 553C553 550 391 493 391 263C391 32 553-29 733-27C852-26 941 5 998 65L998-17L1170-17L1170 394C1170 679 1029 810 662 810ZM780 116C635 116 562 158 562 263C562 368 635 410 780 410C918 410 990 372 997 280L997 247C990 154 918 116 780 116Z"  horiz-adv-x="1233" vert-adv-y="1000"  />

      
      <glyph glyph-name="uni26" unicode="&#x26;" d="M1035 125L893 186C931 225 967 271 999 323L845 381C813 337 775 295 732 258C651 295 586 327 536 354C694 395 788 449 788 544C788 649 656 710 494 710C301 710 196 649 196 534C196 480 214 435 254 390C150 369 43 321 43 193C43 69 144-10 394-10C538-10 664 22 772 89C829 61 891 32 958 0ZM494 584C571 584 617 563 617 525C617 476 534 446 427 423C384 457 367 486 367 514C367 563 417 584 494 584ZM401 133C287 133 214 158 214 221C214 270 273 295 346 313C408 270 490 226 597 173C538 148 473 133 401 133Z"  horiz-adv-x="1078" vert-adv-y="1000"  />

      
      <glyph glyph-name="unib6" unicode="&#xb6;" d="M396 720C209 720 63 709 63 517C63 326 209 314 396 314L396-150L568-150L568 720ZM692 720L692-150L863-150L863 720Z"  horiz-adv-x="926" vert-adv-y="1000"  />

      
      <glyph glyph-name="unia7" unicode="&#xa7;" d="M735 194C777 247 797 294 797 346C797 455 719 504 457 524C265 539 234 549 234 611C234 669 281 684 414 684C573 684 641 668 641 589L813 589C813 760 652 810 430 810C234 810 63 777 63 607C63 538 90 490 148 456C105 403 85 355 85 304C85 195 163 142 425 124C617 109 648 100 648 38C648-20 602-35 468-35C310-35 241-19 241 60L70 60C70-110 230-161 452-161C648-161 819-128 819 42C819 112 793 160 735 194ZM271 413C321 402 379 395 448 390C627 375 693 355 611 236C562 246 503 253 434 258C256 273 189 294 271 413Z"  horiz-adv-x="882" vert-adv-y="1000"  />

      
      <glyph glyph-name="unia9" unicode="&#xa9;" d="M566-110C895-110 1068 92 1068 351C1068 610 895 810 566 810C238 810 63 610 63 351C63 92 238-110 566-110ZM566-1C328-1 171 123 171 351C171 578 327 701 566 701C805 701 959 579 959 351C959 123 804-1 566-1ZM276 350C276 192 385 129 567 129C736 129 842 183 856 318L712 318C699 257 628 247 567 247C490 247 418 262 418 350C418 438 490 453 567 453C628 453 699 443 712 382L856 382C842 517 736 571 567 571C385 571 276 508 276 350Z"  horiz-adv-x="1131" vert-adv-y="1000"  />

      
      <glyph glyph-name="uniae" unicode="&#xae;" d="M399 810C174 810 63 684 63 508C63 332 174 206 399 206C624 206 735 332 735 508C735 684 624 810 399 810ZM399 286C242 286 143 358 143 508C143 658 242 730 399 730C555 730 655 658 655 508C655 358 555 286 399 286ZM568 543C568 602 527 640 467 640L258 640L258 375L326 375L326 446L436 446L479 375L560 375L511 454C546 468 568 500 568 543ZM326 583L448 583C468 583 500 583 500 543C500 503 468 503 448 503L326 503Z"  horiz-adv-x="798" vert-adv-y="1000"  />

      
      <glyph glyph-name="uni2122" unicode="&#x2122;" d="M479 799L63 799L63 726L227 726L227 461L314 461L314 726L479 726ZM1021 799L904 799L762 560L620 799L503 799L503 461L590 461L590 693L730 461L793 461L934 693L934 461L1021 461Z"  horiz-adv-x="1084" vert-adv-y="1000"  />

      
      <glyph glyph-name="unib0" unicode="&#xb0;" d="M368 259C585 259 674 382 674 535C674 687 585 810 368 810C151 810 63 687 63 535C63 382 151 259 368 259ZM368 402C285 402 234 437 234 535C234 633 285 667 368 667C452 667 502 633 502 535C502 437 452 402 368 402Z"  horiz-adv-x="737" vert-adv-y="1000"  />

      
      <glyph glyph-name="uni7c" unicode="&#x7c;" d="M63 720L63-150L234-150L234 720Z"  horiz-adv-x="297" vert-adv-y="1000"  />

      
      <glyph glyph-name="unia6" unicode="&#xa6;" d="M63 720L63 375L234 375L234 720ZM63 195L63-150L234-150L234 195Z"  horiz-adv-x="297" vert-adv-y="1000"  />

      
      <glyph glyph-name="uni2020" unicode="&#x2020;" d="M863 491L549 491L549 720L378 720L378 491L63 491L63 349L378 349L378-150L549-150L549 349L863 349Z"  horiz-adv-x="926" vert-adv-y="1000"  />

      
      <glyph glyph-name="uni2021" unicode="&#x2021;" d="M863 349L863 491L549 491L549 720L378 720L378 491L63 491L63 349L378 349L378 221L63 221L63 79L378 79L378-150L549-150L549 79L863 79L863 221L549 221L549 349Z"  horiz-adv-x="926" vert-adv-y="1000"  />

      
      <glyph glyph-name="uni5e" unicode="&#x5e;" d="M864 350L578 800L350 800L63 350L237 350L464 706L689 350Z"  horiz-adv-x="927" vert-adv-y="1000"  />

      
      <glyph glyph-name="uni0308" unicode="&#x0308;" d="M-500 833L-500 687L-323 687L-323 833ZM-240 833L-240 687L-63 687L-63 833Z"   vert-adv-y="1000"  />

      
      <glyph glyph-name="uni0307" unicode="&#x0307;" d="M-257 833L-257 687L-63 687L-63 833Z"   vert-adv-y="1000"  />

      
      <glyph glyph-name="uni0300" unicode="&#x0300;" d="M-63 789L-452 869L-452 751L-63 671Z"   vert-adv-y="1000"  />

      
      <glyph glyph-name="uni0301" unicode="&#x0301;" d="M-452 789L-452 671L-63 751L-63 869Z"   vert-adv-y="1000"  />

      
      <glyph glyph-name="uni030B" unicode="&#x030B;" d="M-537 801L-537 679L-330 759L-330 881ZM-270 801L-270 679L-63 759L-63 881Z"   vert-adv-y="1000"  />

      
      <glyph glyph-name="uni0302" unicode="&#x0302;" d="M-270 869L-477 789L-477 671L-270 751L-63 671L-63 789Z"   vert-adv-y="1000"  />

      
      <glyph glyph-name="uni030C" unicode="&#x030C;" d="M-270 791L-477 871L-477 753L-270 673L-63 753L-63 871Z"   vert-adv-y="1000"  />

      
      <glyph glyph-name="uni0306" unicode="&#x0306;" d="M-517 870C-517 696-414 656-290 656C-166 656-63 696-63 870L-172 870C-172 789-216 759-290 759C-364 759-409 789-409 870Z"   vert-adv-y="1000"  />

      
      <glyph glyph-name="uni030A" unicode="&#x030A;" d="M-273 660C-117 660-63 709-63 792C-63 875-117 924-273 924C-430 924-483 875-483 792C-483 709-430 660-273 660ZM-273 739C-338 739-375 752-375 792C-375 832-338 845-273 845C-208 845-172 832-172 792C-172 752-208 739-273 739Z"   vert-adv-y="1000"  />

      
      <glyph glyph-name="uni0303" unicode="&#x0303;" d="M-643 670L-497 670C-497 727-484 759-442 759C-362 759-335 660-220 660C-108 660-63 759-63 870L-209 870C-209 813-222 781-265 781C-345 781-372 880-486 880C-599 880-643 781-643 670Z"   vert-adv-y="1000"  />

      
      <glyph glyph-name="uni0304" unicode="&#x0304;" d="M-532 799L-532 681L-63 681L-63 799Z"   vert-adv-y="1000"  />

      
      <glyph glyph-name="uni0312" unicode="&#x0312;" d="M-63 706L-63 814L-119 814L-63 924L-137 924L-217 814L-217 706Z"   vert-adv-y="1000"  />

      
      <glyph glyph-name="uni0326" unicode="&#x0326;" d="M-217-56L-217-164L-161-164L-217-274L-143-274L-63-164L-63-56Z"   vert-adv-y="1000"  />

      
      <glyph glyph-name="uni0327" unicode="&#x0327;" d="M-240-47L-225 0L-341 0L-355-35L-296-93C-218-75-192-83-192-107C-192-145-248-164-379-145L-379-230C-225-249-63-230-63-116C-63-19-180-28-240-47Z"   vert-adv-y="1000"  />

      
      <glyph glyph-name="uni0328" unicode="&#x0328;" d="M-63-113C-146-113-223-113-223-63C-223-37-197-17-176 0L-271 0C-322-33-351-66-351-113C-351-211-250-230-63-230Z"   vert-adv-y="1000"  />

      
      <glyph glyph-name="uni0335" unicode="&#x0335;" d="M-543 399L-543 281L-63 281L-63 399Z"   vert-adv-y="1000"  />

      
      <glyph glyph-name="uni0336" unicode="&#x0336;" d="M-1063 399L-1063 281L-63 281L-63 399Z"   vert-adv-y="1000"  />

      
      <glyph glyph-name="uni0337" unicode="&#x0337;" d="M-43 720L-219 720L-479-150L-303-150Z"   vert-adv-y="1000"  />

      
      <glyph glyph-name="uni0338" unicode="&#x0338;" d="M-71 720L-219 720L-479-150L-331-150Z"   vert-adv-y="1000"  />

      
      <glyph glyph-name="unib4" unicode="&#xb4;" d="M63 789L63 671L452 751L452 869Z"  horiz-adv-x="515" vert-adv-y="1000"  />

      
      <glyph glyph-name="uni02D8" unicode="&#x02D8;" d="M63 870C63 696 166 656 290 656C414 656 517 696 517 870L408 870C408 789 364 759 290 759C216 759 171 789 171 870Z"  horiz-adv-x="580" vert-adv-y="1000"  />

      
      <glyph glyph-name="uni02C7" unicode="&#x02C7;" d="M270 791L63 871L63 753L270 673L477 753L477 871Z"  horiz-adv-x="540" vert-adv-y="1000"  />

      
      </font>
</defs>
</svg>
